<mxfile host="Electron" agent="Mozilla/5.0 (Windows NT 10.0; Win64; x64) AppleWebKit/537.36 (KHTML, like Gecko) draw.io/24.7.5 Chrome/126.0.6478.183 Electron/31.3.0 Safari/537.36" version="24.7.5">
  <diagram name="Page-1" id="2OD4SM8jxPekZYmMoRoa">
    <mxGraphModel dx="2718" dy="-1269" grid="0" gridSize="10" guides="1" tooltips="1" connect="1" arrows="1" fold="1" page="0" pageScale="1" pageWidth="827" pageHeight="1169" math="0" shadow="0">
      <root>
        <mxCell id="0" />
        <mxCell id="1" parent="0" />
        <mxCell id="H1D-Jz9BocjDlhpLzadn-146" value="" style="shape=trapezoid;perimeter=trapezoidPerimeter;whiteSpace=wrap;html=1;fixedSize=1;rotation=90;strokeWidth=2;fontStyle=1" parent="1" vertex="1">
          <mxGeometry x="-145" y="3370" width="69" height="42.5" as="geometry" />
        </mxCell>
        <mxCell id="H1D-Jz9BocjDlhpLzadn-108" value="" style="rounded=0;whiteSpace=wrap;html=1;fillColor=#dae8fc;strokeColor=#6c8ebf;strokeWidth=2;fontStyle=1" parent="1" vertex="1">
          <mxGeometry x="-396" y="2729" width="50" height="679" as="geometry" />
        </mxCell>
        <mxCell id="H1D-Jz9BocjDlhpLzadn-134" value="" style="rounded=0;whiteSpace=wrap;html=1;fillColor=#dae8fc;strokeColor=#6c8ebf;strokeWidth=2;fontStyle=1" parent="1" vertex="1">
          <mxGeometry x="262.5" y="2908" width="50" height="500" as="geometry" />
        </mxCell>
        <mxCell id="H1D-Jz9BocjDlhpLzadn-138" value="&lt;font style=&quot;font-size: 30px;&quot;&gt;Forwarding Unit&lt;/font&gt;" style="rounded=0;whiteSpace=wrap;html=1;fillColor=default;strokeColor=default;strokeWidth=1;align=center;fontColor=#000000;rotation=0;perimeterSpacing=2;gradientColor=none;fontStyle=1" parent="1" vertex="1">
          <mxGeometry x="374" y="3492" width="569" height="179" as="geometry" />
        </mxCell>
        <mxCell id="H1D-Jz9BocjDlhpLzadn-139" value="" style="rounded=0;whiteSpace=wrap;html=1;fillColor=#dae8fc;strokeColor=#6c8ebf;strokeWidth=2;fontStyle=1" parent="1" vertex="1">
          <mxGeometry x="1037" y="2908" width="50" height="500" as="geometry" />
        </mxCell>
        <mxCell id="H1D-Jz9BocjDlhpLzadn-140" value="" style="rounded=0;whiteSpace=wrap;html=1;fillColor=#dae8fc;strokeColor=#6c8ebf;strokeWidth=2;fontStyle=1" parent="1" vertex="1">
          <mxGeometry x="1804" y="2908" width="50" height="500" as="geometry" />
        </mxCell>
        <mxCell id="H1D-Jz9BocjDlhpLzadn-197" value="" style="edgeStyle=orthogonalEdgeStyle;rounded=0;orthogonalLoop=1;jettySize=auto;html=1;entryX=0;entryY=0.5;entryDx=0;entryDy=0;strokeWidth=3;fontStyle=1" parent="1" source="H1D-Jz9BocjDlhpLzadn-141" target="H1D-Jz9BocjDlhpLzadn-142" edge="1">
          <mxGeometry relative="1" as="geometry">
            <mxPoint x="-723.5" y="3117.5" as="targetPoint" />
          </mxGeometry>
        </mxCell>
        <mxCell id="H1D-Jz9BocjDlhpLzadn-141" value="&lt;br&gt;&lt;div&gt;&lt;br&gt;&lt;/div&gt;&lt;div&gt;&lt;br&gt;&lt;/div&gt;&lt;div&gt;&lt;br&gt;&lt;/div&gt;&lt;div&gt;&lt;br&gt;&lt;/div&gt;&lt;div&gt;&lt;br&gt;&lt;/div&gt;&lt;div&gt;&lt;br&gt;&lt;/div&gt;&lt;div&gt;&lt;br&gt;&lt;/div&gt;&lt;div&gt;&lt;br&gt;&lt;/div&gt;&lt;div&gt;&lt;br&gt;&lt;/div&gt;" style="rounded=0;whiteSpace=wrap;html=1;strokeWidth=2;align=left;fontStyle=1" parent="1" vertex="1">
          <mxGeometry x="-751" y="2972" width="102" height="292" as="geometry" />
        </mxCell>
        <mxCell id="H1D-Jz9BocjDlhpLzadn-199" value="INST" style="edgeStyle=orthogonalEdgeStyle;rounded=0;orthogonalLoop=1;jettySize=auto;html=1;strokeWidth=3;fontStyle=1" parent="1" source="H1D-Jz9BocjDlhpLzadn-142" edge="1">
          <mxGeometry relative="1" as="geometry">
            <mxPoint x="-397" y="3118" as="targetPoint" />
          </mxGeometry>
        </mxCell>
        <mxCell id="H1D-Jz9BocjDlhpLzadn-142" value="&lt;span&gt;&lt;font style=&quot;font-size: 22px;&quot;&gt;IMEM&lt;/font&gt;&lt;/span&gt;" style="whiteSpace=wrap;html=1;aspect=fixed;strokeWidth=2;fontStyle=1" parent="1" vertex="1">
          <mxGeometry x="-575" y="3077.5" width="80" height="80" as="geometry" />
        </mxCell>
        <mxCell id="H1D-Jz9BocjDlhpLzadn-143" value="&lt;font style=&quot;font-size: 22px;&quot;&gt;&lt;span&gt;+&lt;/span&gt;&lt;/font&gt;" style="shape=trapezoid;perimeter=trapezoidPerimeter;whiteSpace=wrap;html=1;fixedSize=1;rotation=90;strokeWidth=2;fontStyle=1" parent="1" vertex="1">
          <mxGeometry x="-596" y="3232" width="70.36" height="22.66" as="geometry" />
        </mxCell>
        <mxCell id="H1D-Jz9BocjDlhpLzadn-144" value="&lt;div&gt;&lt;span style=&quot;background-color: initial;&quot;&gt;DataD_AXI&lt;/span&gt;&lt;/div&gt;&lt;div&gt;&lt;span style=&quot;background-color: initial;&quot;&gt;&lt;br&gt;&lt;/span&gt;&lt;/div&gt;&lt;div&gt;&lt;span style=&quot;background-color: initial;&quot;&gt;AddrD_AXI&lt;/span&gt;&lt;/div&gt;&lt;div&gt;&lt;span style=&quot;background-color: initial;&quot;&gt;&lt;br&gt;&lt;/span&gt;&lt;/div&gt;&lt;span style=&quot;background-color: initial;&quot;&gt;DataD&lt;/span&gt;&lt;div&gt;&lt;span style=&quot;white-space: pre;&quot;&gt;&#x9;&lt;/span&gt;&lt;span style=&quot;white-space: pre;&quot;&gt;&#x9;&lt;/span&gt;&lt;span style=&quot;white-space: pre;&quot;&gt;&#x9;&lt;/span&gt;&lt;span style=&quot;background-color: initial;&quot;&gt;DataA&lt;/span&gt;&lt;br&gt;&lt;/div&gt;&lt;div&gt;AddrD&lt;span style=&quot;white-space: pre;&quot;&gt;&#x9;&lt;/span&gt;&lt;span style=&quot;white-space: pre;&quot;&gt;&#x9;&lt;/span&gt;&lt;/div&gt;&lt;div&gt;&lt;br&gt;&lt;/div&gt;&lt;div&gt;AddrA&lt;/div&gt;&lt;div&gt;&lt;span style=&quot;white-space: pre;&quot;&gt;&lt;span style=&quot;white-space: pre;&quot;&gt;&#x9;&lt;/span&gt;&lt;span style=&quot;white-space: pre;&quot;&gt;&#x9;&lt;/span&gt;&lt;span style=&quot;white-space: pre;&quot;&gt;&#x9;&lt;/span&gt;&lt;/span&gt;&lt;span style=&quot;background-color: initial;&quot;&gt;DataB&lt;/span&gt;&lt;/div&gt;&lt;div&gt;&lt;span style=&quot;background-color: initial;&quot;&gt;AddrB&lt;/span&gt;&lt;span style=&quot;background-color: initial; white-space: pre;&quot;&gt;&#x9;&lt;/span&gt;&lt;span style=&quot;background-color: initial; white-space: pre;&quot;&gt;&#x9;&lt;/span&gt;&lt;/div&gt;" style="rounded=0;whiteSpace=wrap;html=1;align=left;fontStyle=1;strokeWidth=2;" parent="1" vertex="1">
          <mxGeometry x="-220" y="2907" width="120" height="360" as="geometry" />
        </mxCell>
        <mxCell id="H1D-Jz9BocjDlhpLzadn-145" value="&lt;span&gt;&lt;font style=&quot;font-size: 15px;&quot;&gt;Imm&lt;/font&gt;&lt;/span&gt;&lt;div&gt;&lt;span&gt;&lt;font style=&quot;font-size: 15px;&quot;&gt;Gen&lt;/font&gt;&lt;/span&gt;&lt;/div&gt;" style="text;strokeColor=none;align=center;fillColor=none;html=1;verticalAlign=middle;whiteSpace=wrap;rounded=0;fontStyle=1" parent="1" vertex="1">
          <mxGeometry x="-142" y="3379" width="60" height="24.5" as="geometry" />
        </mxCell>
        <mxCell id="H1D-Jz9BocjDlhpLzadn-147" value="" style="shape=trapezoid;perimeter=trapezoidPerimeter;whiteSpace=wrap;html=1;fixedSize=1;rotation=90;strokeWidth=2;fontStyle=1" parent="1" vertex="1">
          <mxGeometry x="-16.75" y="3166.25" width="283.5" height="43" as="geometry" />
        </mxCell>
        <mxCell id="H1D-Jz9BocjDlhpLzadn-148" value="&lt;span style=&quot;font-size: 11px;&quot;&gt;&lt;font style=&quot;font-size: 11px;&quot;&gt;Branch&lt;/font&gt;&lt;/span&gt;&lt;div style=&quot;font-size: 11px;&quot;&gt;&lt;span style=&quot;&quot;&gt;&lt;font style=&quot;font-size: 11px;&quot;&gt;Comp&lt;/font&gt;&lt;/span&gt;&lt;/div&gt;" style="text;strokeColor=none;align=center;fillColor=none;html=1;verticalAlign=middle;whiteSpace=wrap;rounded=0;fontStyle=1" parent="1" vertex="1">
          <mxGeometry x="95" y="3176.5" width="60" height="24.5" as="geometry" />
        </mxCell>
        <mxCell id="H1D-Jz9BocjDlhpLzadn-190" value="" style="edgeStyle=orthogonalEdgeStyle;rounded=0;orthogonalLoop=1;jettySize=auto;html=1;entryX=0.229;entryY=1.004;entryDx=0;entryDy=0;entryPerimeter=0;fontStyle=1" parent="1" source="H1D-Jz9BocjDlhpLzadn-149" target="H1D-Jz9BocjDlhpLzadn-147" edge="1">
          <mxGeometry relative="1" as="geometry">
            <mxPoint x="255" y="3128.5" as="targetPoint" />
          </mxGeometry>
        </mxCell>
        <mxCell id="H1D-Jz9BocjDlhpLzadn-149" value="0&lt;span style=&quot;white-space: pre;&quot;&gt;&#x9;&lt;/span&gt;1&lt;span style=&quot;white-space: pre;&quot;&gt;&#x9;&lt;/span&gt;2&lt;span style=&quot;white-space: pre;&quot;&gt;&#x9;&lt;/span&gt;3" style="rounded=1;whiteSpace=wrap;html=1;arcSize=50;rotation=90;fontStyle=1;strokeWidth=2;" parent="1" vertex="1">
          <mxGeometry x="-14" y="3098" width="126" height="25" as="geometry" />
        </mxCell>
        <mxCell id="H1D-Jz9BocjDlhpLzadn-192" value="" style="edgeStyle=orthogonalEdgeStyle;rounded=0;orthogonalLoop=1;jettySize=auto;html=1;entryX=0.797;entryY=1.002;entryDx=0;entryDy=0;entryPerimeter=0;fontStyle=1" parent="1" source="H1D-Jz9BocjDlhpLzadn-150" target="H1D-Jz9BocjDlhpLzadn-147" edge="1">
          <mxGeometry relative="1" as="geometry">
            <mxPoint x="108" y="3290" as="targetPoint" />
          </mxGeometry>
        </mxCell>
        <mxCell id="H1D-Jz9BocjDlhpLzadn-150" value="0&lt;span style=&quot;white-space: pre;&quot;&gt;&#x9;&lt;/span&gt;1&lt;span style=&quot;white-space: pre;&quot;&gt;&#x9;&lt;/span&gt;2&lt;span style=&quot;white-space: pre;&quot;&gt;&#x9;&lt;/span&gt;3" style="rounded=1;whiteSpace=wrap;html=1;arcSize=50;rotation=90;fontStyle=1;strokeWidth=2;" parent="1" vertex="1">
          <mxGeometry x="-14" y="3260" width="126" height="25" as="geometry" />
        </mxCell>
        <mxCell id="H1D-Jz9BocjDlhpLzadn-152" value="" style="rounded=0;whiteSpace=wrap;html=1;fillColor=#dae8fc;strokeColor=#6c8ebf;strokeWidth=2;fontStyle=1" parent="1" vertex="1">
          <mxGeometry x="262.5" y="2550" width="50" height="360" as="geometry" />
        </mxCell>
        <mxCell id="H1D-Jz9BocjDlhpLzadn-153" value="" style="rounded=0;whiteSpace=wrap;html=1;fillColor=#dae8fc;strokeColor=#6c8ebf;strokeWidth=2;fontStyle=1" parent="1" vertex="1">
          <mxGeometry x="1037" y="2547" width="50" height="360" as="geometry" />
        </mxCell>
        <mxCell id="H1D-Jz9BocjDlhpLzadn-154" value="" style="rounded=0;whiteSpace=wrap;html=1;fillColor=#dae8fc;strokeColor=#6c8ebf;strokeWidth=2;fontStyle=1" parent="1" vertex="1">
          <mxGeometry x="1804" y="2547" width="50" height="360" as="geometry" />
        </mxCell>
        <mxCell id="H1D-Jz9BocjDlhpLzadn-155" value="" style="shape=trapezoid;perimeter=trapezoidPerimeter;whiteSpace=wrap;html=1;fixedSize=1;rotation=90;strokeWidth=2;fontStyle=1" parent="1" vertex="1">
          <mxGeometry x="633" y="3058.3599999999997" width="239.5" height="147.25" as="geometry" />
        </mxCell>
        <mxCell id="H1D-Jz9BocjDlhpLzadn-156" value="0&lt;span style=&quot;white-space: pre;&quot;&gt;&#x9;&lt;/span&gt;1&lt;span style=&quot;white-space: pre;&quot;&gt;&#x9;&lt;/span&gt;2" style="rounded=1;whiteSpace=wrap;html=1;arcSize=50;rotation=90;fontStyle=1;strokeWidth=2;" parent="1" vertex="1">
          <mxGeometry x="369" y="3045.74" width="100" height="25" as="geometry" />
        </mxCell>
        <mxCell id="H1D-Jz9BocjDlhpLzadn-157" value="0&lt;span style=&quot;white-space: pre;&quot;&gt;&#x9;&lt;/span&gt;1&lt;span style=&quot;white-space: pre;&quot;&gt;&#x9;&lt;/span&gt;2" style="rounded=1;whiteSpace=wrap;html=1;arcSize=50;rotation=90;fontStyle=1;strokeWidth=2;" parent="1" vertex="1">
          <mxGeometry x="370" y="3194.74" width="100" height="25" as="geometry" />
        </mxCell>
        <mxCell id="H1D-Jz9BocjDlhpLzadn-158" value="1&lt;span style=&quot;white-space: pre;&quot;&gt;&#x9;&lt;/span&gt;0" style="rounded=1;whiteSpace=wrap;html=1;arcSize=50;rotation=90;fontStyle=1;strokeWidth=2;" parent="1" vertex="1">
          <mxGeometry x="533" y="3033.74" width="72" height="25" as="geometry" />
        </mxCell>
        <mxCell id="H1D-Jz9BocjDlhpLzadn-159" value="0&lt;span style=&quot;white-space: pre;&quot;&gt;&#x9;&lt;/span&gt;1" style="rounded=1;whiteSpace=wrap;html=1;arcSize=50;rotation=90;fontStyle=1;strokeWidth=2;" parent="1" vertex="1">
          <mxGeometry x="534" y="3206.74" width="72" height="25" as="geometry" />
        </mxCell>
        <mxCell id="H1D-Jz9BocjDlhpLzadn-160" value="&lt;span style=&quot;&quot;&gt;&lt;font style=&quot;font-size: 30px;&quot;&gt;ALU&lt;/font&gt;&lt;/span&gt;" style="text;html=1;align=center;verticalAlign=middle;whiteSpace=wrap;rounded=0;fontSize=22;fontStyle=1" parent="1" vertex="1">
          <mxGeometry x="698.5" y="3099.74" width="105" height="75.25" as="geometry" />
        </mxCell>
        <mxCell id="H1D-Jz9BocjDlhpLzadn-161" value="&lt;span style=&quot;font-size: 22px;&quot;&gt;&lt;span&gt;CONTROL&lt;/span&gt;&lt;/span&gt;" style="ellipse;whiteSpace=wrap;html=1;fillColor=#dae8fc;strokeColor=#6c8ebf;fontStyle=1" parent="1" vertex="1">
          <mxGeometry x="-213" y="2579" width="120" height="200" as="geometry" />
        </mxCell>
        <mxCell id="H1D-Jz9BocjDlhpLzadn-163" value="opcode_in[6:0]&lt;div&gt;&lt;span style=&quot;white-space: pre;&quot;&gt;&#x9;&lt;/span&gt;&lt;span style=&quot;white-space: pre;&quot;&gt;&#x9;&lt;/span&gt;&lt;span style=&quot;white-space: pre;&quot;&gt;&#x9;&lt;/span&gt;&lt;span style=&quot;white-space: pre;&quot;&gt;&#x9;&lt;/span&gt;&lt;span style=&quot;white-space: pre;&quot;&gt;&#x9;&lt;/span&gt;&lt;span style=&quot;white-space: pre;&quot;&gt;&#x9;&lt;/span&gt;MEMRW_DMEM&lt;br&gt;&lt;/div&gt;&lt;div&gt;MEMRW&lt;br&gt;&lt;div&gt;&lt;div style=&quot;text-align: center;&quot;&gt;&lt;span style=&quot;background-color: transparent; color: light-dark(rgb(0, 0, 0), rgb(255, 255, 255)); white-space: pre;&quot;&gt;&#x9;&lt;/span&gt;&lt;span style=&quot;background-color: transparent; color: light-dark(rgb(0, 0, 0), rgb(255, 255, 255)); white-space: pre;&quot;&gt;&#x9;&lt;/span&gt;&lt;span style=&quot;background-color: transparent; color: light-dark(rgb(0, 0, 0), rgb(255, 255, 255)); white-space: pre;&quot;&gt;&#x9;&lt;/span&gt;&lt;span style=&quot;background-color: transparent; color: light-dark(rgb(0, 0, 0), rgb(255, 255, 255)); white-space: pre;&quot;&gt;&#x9;&lt;/span&gt;&lt;span style=&quot;background-color: transparent; color: light-dark(rgb(0, 0, 0), rgb(255, 255, 255)); white-space: pre;&quot;&gt;&#x9;&lt;/span&gt;&amp;nbsp; &amp;nbsp; ADDR_DMEM&lt;/div&gt;&lt;div&gt;ADDR&lt;/div&gt;&lt;div&gt;&lt;span style=&quot;white-space: pre;&quot;&gt;&#x9;&lt;/span&gt;&lt;span style=&quot;white-space: pre;&quot;&gt;&#x9;&lt;/span&gt;&lt;span style=&quot;white-space: pre;&quot;&gt;&#x9;&lt;/span&gt;&lt;span style=&quot;white-space: pre;&quot;&gt;&#x9;&lt;/span&gt;&lt;span style=&quot;white-space: pre;&quot;&gt;&#x9;&lt;/span&gt;&lt;span style=&quot;white-space: pre;&quot;&gt;&#x9;&lt;/span&gt;&lt;span style=&quot;background-color: transparent; color: light-dark(rgb(0, 0, 0), rgb(255, 255, 255));&quot;&gt;DATAW_DMEM&lt;/span&gt;&lt;br&gt;&lt;/div&gt;&lt;div&gt;&lt;div&gt;DATAW&lt;/div&gt;&lt;div&gt;&lt;span style=&quot;white-space: pre;&quot;&gt;&#x9;&lt;/span&gt;&lt;span style=&quot;white-space: pre;&quot;&gt;&#x9;&lt;/span&gt;&lt;span style=&quot;white-space: pre;&quot;&gt;&#x9;&lt;/span&gt;&lt;span style=&quot;white-space: pre;&quot;&gt;&#x9;&lt;/span&gt;&lt;span style=&quot;white-space: pre;&quot;&gt;&#x9;&lt;/span&gt;&amp;nbsp; &amp;nbsp; &amp;nbsp; &lt;span style=&quot;white-space: pre;&quot;&gt;&#x9;&lt;/span&gt;&lt;span style=&quot;background-color: transparent; color: light-dark(rgb(0, 0, 0), rgb(255, 255, 255));&quot;&gt;funct3_DMEM&lt;/span&gt;&lt;/div&gt;&lt;div&gt;&lt;br&gt;&lt;/div&gt;&lt;div&gt;&lt;span style=&quot;white-space: pre;&quot;&gt;&#x9;&lt;/span&gt;&lt;span style=&quot;white-space: pre;&quot;&gt;&#x9;&lt;/span&gt;&lt;span style=&quot;white-space: pre;&quot;&gt;&#x9;&lt;/span&gt;&lt;span style=&quot;white-space: pre;&quot;&gt;&#x9;&lt;/span&gt;&lt;span style=&quot;white-space: pre;&quot;&gt;&#x9;&lt;/span&gt;&lt;span style=&quot;white-space: pre;&quot;&gt;&#x9;&lt;/span&gt;&lt;br&gt;&lt;/div&gt;&lt;div&gt;funct3&lt;span style=&quot;white-space: pre;&quot;&gt;&#x9;&lt;/span&gt;&lt;span style=&quot;white-space: pre;&quot;&gt;&#x9;&lt;/span&gt;&lt;span style=&quot;white-space: pre;&quot;&gt;&#x9;&lt;/span&gt;&lt;span style=&quot;white-space: pre;&quot;&gt;&#x9;&lt;/span&gt;&lt;span style=&quot;white-space: pre;&quot;&gt;&#x9;&lt;/span&gt;&lt;/div&gt;&lt;div&gt;&lt;span style=&quot;white-space: pre;&quot;&gt;&#x9;&lt;/span&gt;&lt;span style=&quot;white-space: pre;&quot;&gt;&#x9;&lt;/span&gt;&lt;span style=&quot;white-space: pre;&quot;&gt;&#x9;&lt;/span&gt;&lt;span style=&quot;white-space: pre;&quot;&gt;&#x9;&lt;/span&gt;&lt;span style=&quot;white-space: pre;&quot;&gt;&#x9;&lt;/span&gt;&lt;span style=&quot;white-space: pre;&quot;&gt;&#x9;&lt;/span&gt;&lt;span style=&quot;text-align: center; background-color: transparent; color: light-dark(rgb(0, 0, 0), rgb(255, 255, 255));&quot;&gt;ADDR_AXI&lt;/span&gt;&lt;br&gt;&lt;/div&gt;&lt;div&gt;RegWEn&lt;span style=&quot;background-color: transparent; color: light-dark(rgb(0, 0, 0), rgb(255, 255, 255)); white-space: pre;&quot;&gt;&#x9;&lt;/span&gt;&lt;span style=&quot;background-color: transparent; color: light-dark(rgb(0, 0, 0), rgb(255, 255, 255)); white-space: pre;&quot;&gt;&#x9;&lt;/span&gt;&lt;span style=&quot;background-color: transparent; color: light-dark(rgb(0, 0, 0), rgb(255, 255, 255)); white-space: pre;&quot;&gt;&#x9;&lt;/span&gt;&lt;span style=&quot;background-color: transparent; color: light-dark(rgb(0, 0, 0), rgb(255, 255, 255)); white-space: pre;&quot;&gt;&#x9;&lt;/span&gt;&lt;span style=&quot;background-color: transparent; color: light-dark(rgb(0, 0, 0), rgb(255, 255, 255)); white-space: pre;&quot;&gt;&#x9;&lt;/span&gt;&lt;/div&gt;&lt;div&gt;&lt;span style=&quot;white-space: pre;&quot;&gt;&#x9;&lt;/span&gt;&lt;span style=&quot;white-space: pre;&quot;&gt;&#x9;&lt;/span&gt;&lt;span style=&quot;white-space: pre;&quot;&gt;&#x9;&lt;/span&gt;&lt;span style=&quot;white-space: pre;&quot;&gt;&#x9;&lt;/span&gt;&lt;span style=&quot;white-space: pre;&quot;&gt;&#x9;&lt;/span&gt;&lt;span style=&quot;white-space: pre;&quot;&gt;&#x9;&lt;/span&gt;&lt;span style=&quot;background-color: transparent; color: light-dark(rgb(0, 0, 0), rgb(255, 255, 255));&quot;&gt;DATAW_AXI&lt;/span&gt;&lt;br&gt;&lt;/div&gt;&lt;div&gt;AddrD&lt;span style=&quot;white-space: pre;&quot;&gt;&#x9;&lt;/span&gt;&lt;span style=&quot;white-space: pre;&quot;&gt;&#x9;&lt;/span&gt;&lt;span style=&quot;white-space: pre;&quot;&gt;&#x9;&lt;/span&gt;&lt;span style=&quot;white-space: pre;&quot;&gt;&#x9;&lt;/span&gt;&lt;span style=&quot;white-space: pre;&quot;&gt;&#x9;&lt;/span&gt;&lt;/div&gt;&lt;div&gt;&lt;span style=&quot;white-space: pre;&quot;&gt;&#x9;&lt;/span&gt;&lt;span style=&quot;white-space: pre;&quot;&gt;&#x9;&lt;/span&gt;&lt;span style=&quot;white-space: pre;&quot;&gt;&#x9;&lt;/span&gt;&lt;span style=&quot;white-space: pre;&quot;&gt;&#x9;&lt;/span&gt;&lt;span style=&quot;white-space: pre;&quot;&gt;&#x9;&lt;/span&gt;&lt;span style=&quot;white-space: pre;&quot;&gt;&#x9;&lt;/span&gt;&lt;span style=&quot;background-color: transparent; color: light-dark(rgb(0, 0, 0), rgb(255, 255, 255));&quot;&gt;funct3_AXI&lt;/span&gt;&lt;span style=&quot;background-color: transparent; color: light-dark(rgb(0, 0, 0), rgb(255, 255, 255)); white-space: pre;&quot;&gt;&#x9;&lt;/span&gt;&lt;br&gt;&lt;/div&gt;&lt;div&gt;&lt;br&gt;&lt;/div&gt;&lt;div&gt;&lt;span style=&quot;white-space: pre;&quot;&gt;&#x9;&lt;/span&gt;&lt;span style=&quot;white-space: pre;&quot;&gt;&#x9;&lt;/span&gt;&lt;span style=&quot;white-space: pre;&quot;&gt;&#x9;&lt;/span&gt;&lt;span style=&quot;white-space: pre;&quot;&gt;&#x9;&lt;/span&gt;&lt;span style=&quot;white-space: pre;&quot;&gt;&#x9;&lt;/span&gt;&lt;span style=&quot;white-space: pre;&quot;&gt;&#x9;&lt;/span&gt;RegWEn_out&lt;/div&gt;&lt;div&gt;&lt;span style=&quot;white-space: pre;&quot;&gt;&#x9;&lt;/span&gt;&lt;span style=&quot;white-space: pre;&quot;&gt;&#x9;&lt;/span&gt;&lt;span style=&quot;white-space: pre;&quot;&gt;&#x9;&lt;/span&gt;&lt;span style=&quot;white-space: pre;&quot;&gt;&#x9;&lt;/span&gt;&lt;span style=&quot;white-space: pre;&quot;&gt;&#x9;&lt;/span&gt;&lt;span style=&quot;white-space: pre;&quot;&gt;&#x9;&lt;/span&gt;&lt;/div&gt;&lt;/div&gt;&lt;/div&gt;&lt;div&gt;&lt;span style=&quot;white-space: pre;&quot;&gt;&#x9;&lt;/span&gt;&lt;span style=&quot;white-space: pre;&quot;&gt;&#x9;&lt;/span&gt;&lt;span style=&quot;white-space: pre;&quot;&gt;&#x9;&lt;/span&gt;&lt;span style=&quot;white-space: pre;&quot;&gt;&#x9;&lt;/span&gt;&lt;span style=&quot;white-space: pre;&quot;&gt;&#x9;&lt;/span&gt;&lt;span style=&quot;white-space: pre;&quot;&gt;&#x9;&lt;/span&gt;AddrD_out&lt;br&gt;&lt;/div&gt;&lt;/div&gt;&lt;div&gt;&lt;br&gt;&lt;/div&gt;&lt;div&gt;&lt;br&gt;&lt;/div&gt;&lt;div&gt;&lt;span style=&quot;white-space: pre;&quot;&gt;&#x9;&lt;/span&gt;&lt;span style=&quot;white-space: pre;&quot;&gt;&#x9;&lt;/span&gt;&lt;span style=&quot;white-space: pre;&quot;&gt;&#x9;&lt;/span&gt;&lt;span style=&quot;white-space: pre;&quot;&gt;&#x9;&lt;/span&gt;&lt;span style=&quot;white-space: pre;&quot;&gt;&#x9;&lt;/span&gt;&lt;span style=&quot;white-space: pre;&quot;&gt;&#x9;&lt;/span&gt;&lt;span style=&quot;background-color: transparent;&quot;&gt;TXN_AXI_INIT&lt;/span&gt;&lt;br&gt;&lt;/div&gt;&lt;div&gt;&lt;br&gt;&lt;/div&gt;&lt;div&gt;&lt;br&gt;&lt;/div&gt;&lt;div&gt;&lt;br&gt;&lt;/div&gt;" style="rounded=0;whiteSpace=wrap;html=1;strokeWidth=2;align=left;fontStyle=1" parent="1" vertex="1">
          <mxGeometry x="1223" y="3057.74" width="257" height="378.26" as="geometry" />
        </mxCell>
        <mxCell id="H1D-Jz9BocjDlhpLzadn-164" value="&lt;font style=&quot;font-size: 25px;&quot;&gt;MUX DMEM AXI&lt;/font&gt;" style="text;strokeColor=none;align=center;fillColor=none;html=1;verticalAlign=middle;whiteSpace=wrap;rounded=0;fontStyle=1" parent="1" vertex="1">
          <mxGeometry x="1192" y="3171" width="268" height="30" as="geometry" />
        </mxCell>
        <mxCell id="H1D-Jz9BocjDlhpLzadn-165" style="edgeStyle=orthogonalEdgeStyle;rounded=0;orthogonalLoop=1;jettySize=auto;html=1;exitX=0.5;exitY=1;exitDx=0;exitDy=0;fontStyle=1" parent="1" source="H1D-Jz9BocjDlhpLzadn-164" target="H1D-Jz9BocjDlhpLzadn-164" edge="1">
          <mxGeometry relative="1" as="geometry" />
        </mxCell>
        <mxCell id="H1D-Jz9BocjDlhpLzadn-166" value="&lt;div&gt;MemRW&lt;/div&gt;&lt;div&gt;&lt;br&gt;&lt;/div&gt;&lt;div&gt;&lt;div&gt;addr&lt;/div&gt;&lt;/div&gt;&lt;div&gt;&lt;br&gt;&lt;/div&gt;&lt;div&gt;dataW&lt;/div&gt;&lt;div&gt;&lt;br&gt;&lt;/div&gt;&lt;div&gt;funct3&lt;/div&gt;&lt;div&gt;&lt;br&gt;&lt;/div&gt;&lt;div&gt;&lt;br&gt;&lt;/div&gt;&lt;div&gt;&lt;br&gt;&lt;/div&gt;" style="rounded=0;whiteSpace=wrap;html=1;strokeWidth=2;align=left;fontStyle=1" parent="1" vertex="1">
          <mxGeometry x="1561" y="3056.74" width="185" height="182.25" as="geometry" />
        </mxCell>
        <mxCell id="H1D-Jz9BocjDlhpLzadn-167" value="" style="endArrow=classic;html=1;rounded=0;exitX=0.999;exitY=0.123;exitDx=0;exitDy=0;exitPerimeter=0;fontSize=16;strokeWidth=2;entryX=-0.009;entryY=0.14;entryDx=0;entryDy=0;entryPerimeter=0;fontStyle=1" parent="1" target="H1D-Jz9BocjDlhpLzadn-166" edge="1">
          <mxGeometry width="50" height="50" relative="1" as="geometry">
            <mxPoint x="1456.743" y="3081.2709999999997" as="sourcePoint" />
            <mxPoint x="1526" y="3082" as="targetPoint" />
          </mxGeometry>
        </mxCell>
        <mxCell id="H1D-Jz9BocjDlhpLzadn-168" value="" style="endArrow=classic;html=1;rounded=0;exitX=1.001;exitY=0.138;exitDx=0;exitDy=0;exitPerimeter=0;fontSize=16;strokeWidth=2;fontStyle=1" parent="1" source="H1D-Jz9BocjDlhpLzadn-163" edge="1">
          <mxGeometry width="50" height="50" relative="1" as="geometry">
            <mxPoint x="1457" y="3111" as="sourcePoint" />
            <mxPoint x="1560" y="3110" as="targetPoint" />
          </mxGeometry>
        </mxCell>
        <mxCell id="H1D-Jz9BocjDlhpLzadn-169" value="" style="endArrow=classic;html=1;rounded=0;exitX=1;exitY=0.221;exitDx=0;exitDy=0;exitPerimeter=0;entryX=-0.003;entryY=0.458;entryDx=0;entryDy=0;entryPerimeter=0;fontSize=16;strokeWidth=2;fontStyle=1" parent="1" source="H1D-Jz9BocjDlhpLzadn-163" target="H1D-Jz9BocjDlhpLzadn-166" edge="1">
          <mxGeometry width="50" height="50" relative="1" as="geometry">
            <mxPoint x="1499" y="3155" as="sourcePoint" />
            <mxPoint x="1549" y="3105" as="targetPoint" />
          </mxGeometry>
        </mxCell>
        <mxCell id="H1D-Jz9BocjDlhpLzadn-170" value="" style="endArrow=classic;html=1;rounded=0;exitX=0.998;exitY=0.298;exitDx=0;exitDy=0;exitPerimeter=0;entryX=0.002;entryY=0.621;entryDx=0;entryDy=0;entryPerimeter=0;fontSize=16;strokeWidth=2;fontStyle=1" parent="1" source="H1D-Jz9BocjDlhpLzadn-163" target="H1D-Jz9BocjDlhpLzadn-166" edge="1">
          <mxGeometry width="50" height="50" relative="1" as="geometry">
            <mxPoint x="1510" y="3171" as="sourcePoint" />
            <mxPoint x="1560" y="3121" as="targetPoint" />
          </mxGeometry>
        </mxCell>
        <mxCell id="H1D-Jz9BocjDlhpLzadn-171" value="" style="endArrow=classic;html=1;rounded=0;exitX=1.004;exitY=0.673;exitDx=0;exitDy=0;exitPerimeter=0;entryX=0.027;entryY=0.807;entryDx=0;entryDy=0;entryPerimeter=0;fillColor=#b1ddf0;strokeColor=#10739e;fontStyle=1" parent="1" source="H1D-Jz9BocjDlhpLzadn-163" target="H1D-Jz9BocjDlhpLzadn-140" edge="1">
          <mxGeometry width="50" height="50" relative="1" as="geometry">
            <mxPoint x="1417" y="3308" as="sourcePoint" />
            <mxPoint x="1467" y="3258" as="targetPoint" />
          </mxGeometry>
        </mxCell>
        <mxCell id="H1D-Jz9BocjDlhpLzadn-172" value="" style="endArrow=classic;html=1;rounded=0;entryX=0.007;entryY=0.865;entryDx=0;entryDy=0;entryPerimeter=0;exitX=1;exitY=0.75;exitDx=0;exitDy=0;fontStyle=1" parent="1" source="H1D-Jz9BocjDlhpLzadn-163" target="H1D-Jz9BocjDlhpLzadn-140" edge="1">
          <mxGeometry width="50" height="50" relative="1" as="geometry">
            <mxPoint x="1467" y="3341" as="sourcePoint" />
            <mxPoint x="1498" y="3255" as="targetPoint" />
          </mxGeometry>
        </mxCell>
        <mxCell id="lxd2m9CHt8v5ix-Pc_Jc-26" value="" style="edgeStyle=orthogonalEdgeStyle;rounded=0;orthogonalLoop=1;jettySize=auto;html=1;fontStyle=1" parent="1" edge="1">
          <mxGeometry relative="1" as="geometry">
            <mxPoint x="1614" y="3718.5" as="sourcePoint" />
            <mxPoint x="1677" y="3718.5" as="targetPoint" />
          </mxGeometry>
        </mxCell>
        <mxCell id="H1D-Jz9BocjDlhpLzadn-174" value="&lt;font style=&quot;font-size: 25px;&quot;&gt;AXI4 LITE INTERFACE&lt;/font&gt;" style="rounded=0;whiteSpace=wrap;html=1;fontStyle=1" parent="1" vertex="1">
          <mxGeometry x="1021" y="3692" width="589" height="165" as="geometry" />
        </mxCell>
        <mxCell id="H1D-Jz9BocjDlhpLzadn-175" value="" style="endArrow=classic;html=1;rounded=0;exitX=0.991;exitY=0.873;exitDx=0;exitDy=0;exitPerimeter=0;entryX=0.803;entryY=0.003;entryDx=0;entryDy=0;strokeWidth=2;entryPerimeter=0;fontStyle=1" parent="1" target="H1D-Jz9BocjDlhpLzadn-174" edge="1">
          <mxGeometry width="50" height="50" relative="1" as="geometry">
            <mxPoint x="1456.687" y="3386.96098" as="sourcePoint" />
            <mxPoint x="1496.5" y="3587" as="targetPoint" />
            <Array as="points">
              <mxPoint x="1497" y="3387" />
            </Array>
          </mxGeometry>
        </mxCell>
        <mxCell id="H1D-Jz9BocjDlhpLzadn-176" value="" style="endArrow=classic;html=1;rounded=0;exitX=0.998;exitY=0.6;exitDx=0;exitDy=0;exitPerimeter=0;entryX=0.828;entryY=0;entryDx=0;entryDy=0;entryPerimeter=0;strokeWidth=2;fontStyle=1" parent="1" source="H1D-Jz9BocjDlhpLzadn-163" target="H1D-Jz9BocjDlhpLzadn-174" edge="1">
          <mxGeometry width="50" height="50" relative="1" as="geometry">
            <mxPoint x="1547" y="3508" as="sourcePoint" />
            <mxPoint x="1512" y="3586" as="targetPoint" />
            <Array as="points">
              <mxPoint x="1481" y="3284" />
              <mxPoint x="1509" y="3284" />
            </Array>
          </mxGeometry>
        </mxCell>
        <mxCell id="H1D-Jz9BocjDlhpLzadn-177" value="" style="endArrow=classic;html=1;rounded=0;exitX=1;exitY=0.524;exitDx=0;exitDy=0;exitPerimeter=0;entryX=0.854;entryY=-0.001;entryDx=0;entryDy=0;entryPerimeter=0;strokeWidth=2;fontStyle=1" parent="1" source="H1D-Jz9BocjDlhpLzadn-163" target="H1D-Jz9BocjDlhpLzadn-174" edge="1">
          <mxGeometry width="50" height="50" relative="1" as="geometry">
            <mxPoint x="1512" y="3391" as="sourcePoint" />
            <mxPoint x="1525" y="3585" as="targetPoint" />
            <Array as="points">
              <mxPoint x="1523" y="3256" />
            </Array>
          </mxGeometry>
        </mxCell>
        <mxCell id="H1D-Jz9BocjDlhpLzadn-178" value="" style="endArrow=classic;html=1;rounded=0;exitX=1;exitY=0.447;exitDx=0;exitDy=0;exitPerimeter=0;entryX=0.877;entryY=-0.004;entryDx=0;entryDy=0;entryPerimeter=0;strokeWidth=2;fontStyle=1" parent="1" source="H1D-Jz9BocjDlhpLzadn-163" target="H1D-Jz9BocjDlhpLzadn-174" edge="1">
          <mxGeometry width="50" height="50" relative="1" as="geometry">
            <mxPoint x="1503" y="3222" as="sourcePoint" />
            <mxPoint x="1539" y="3585" as="targetPoint" />
            <Array as="points">
              <mxPoint x="1540" y="3227" />
            </Array>
          </mxGeometry>
        </mxCell>
        <mxCell id="H1D-Jz9BocjDlhpLzadn-180" value="AddrD_AXI&lt;span style=&quot;white-space: pre;&quot;&gt;&#x9;&lt;/span&gt;&lt;span style=&quot;white-space: pre;&quot;&gt;&#x9;&lt;/span&gt;&lt;span style=&quot;white-space: pre;&quot;&gt;&#x9;&lt;/span&gt;&lt;span style=&quot;white-space: pre;&quot;&gt;&#x9;&lt;/span&gt;&lt;span style=&quot;white-space: pre;&quot;&gt;&#x9;&lt;/span&gt;&lt;span style=&quot;white-space: pre;&quot;&gt;&#x9;&lt;/span&gt;&lt;span style=&quot;white-space: pre;&quot;&gt;&#x9;&lt;/span&gt;&lt;span style=&quot;white-space: pre;&quot;&gt;&#x9;&lt;/span&gt;&lt;span style=&quot;white-space: pre;&quot;&gt;&#x9;&lt;/span&gt;&lt;span style=&quot;white-space: pre;&quot;&gt;&#x9;&lt;/span&gt;&lt;span style=&quot;white-space: pre;&quot;&gt;&#x9;&lt;/span&gt;&lt;span style=&quot;white-space: pre;&quot;&gt;&#x9;&lt;/span&gt;&lt;span style=&quot;white-space: pre;&quot;&gt;&#x9;&lt;/span&gt;&lt;span style=&quot;white-space: pre;&quot;&gt;&#x9;&lt;/span&gt;&lt;span style=&quot;white-space: pre;&quot;&gt;&#x9;&lt;/span&gt;&lt;span style=&quot;white-space: pre;&quot;&gt;&#x9;&lt;/span&gt;&amp;nbsp;&amp;nbsp;&lt;span style=&quot;text-align: center;&quot;&gt;stall_decision&lt;/span&gt;" style="text;strokeColor=none;align=left;fillColor=none;html=1;verticalAlign=middle;whiteSpace=wrap;rounded=0;fontStyle=1" parent="1" vertex="1">
          <mxGeometry x="1025" y="3706" width="60" height="30" as="geometry" />
        </mxCell>
        <mxCell id="H1D-Jz9BocjDlhpLzadn-181" value="DataD_AXI" style="text;strokeColor=none;align=left;fillColor=none;html=1;verticalAlign=middle;whiteSpace=wrap;rounded=0;fontStyle=1" parent="1" vertex="1">
          <mxGeometry x="1025" y="3761" width="60" height="30" as="geometry" />
        </mxCell>
        <mxCell id="H1D-Jz9BocjDlhpLzadn-183" value="RegWEn_AXI" style="text;strokeColor=none;align=left;fillColor=none;html=1;verticalAlign=middle;whiteSpace=wrap;rounded=0;fontStyle=1" parent="1" vertex="1">
          <mxGeometry x="1025" y="3816" width="60" height="30" as="geometry" />
        </mxCell>
        <mxCell id="H1D-Jz9BocjDlhpLzadn-184" value="" style="endArrow=classic;html=1;rounded=0;exitX=0;exitY=0.5;exitDx=0;exitDy=0;entryX=0.007;entryY=0.299;entryDx=0;entryDy=0;entryPerimeter=0;fontSize=12;strokeWidth=3;fontStyle=1" parent="1" source="H1D-Jz9BocjDlhpLzadn-180" target="H1D-Jz9BocjDlhpLzadn-144" edge="1">
          <mxGeometry width="50" height="50" relative="1" as="geometry">
            <mxPoint x="325" y="3050" as="sourcePoint" />
            <mxPoint x="-297" y="3471" as="targetPoint" />
            <Array as="points">
              <mxPoint x="-311" y="3714" />
              <mxPoint x="-311" y="3015" />
            </Array>
          </mxGeometry>
        </mxCell>
        <mxCell id="H1D-Jz9BocjDlhpLzadn-185" value="" style="endArrow=classic;html=1;rounded=0;entryX=-0.003;entryY=0.375;entryDx=0;entryDy=0;entryPerimeter=0;fontSize=12;strokeWidth=3;exitX=0;exitY=0.5;exitDx=0;exitDy=0;fontStyle=1" parent="1" source="H1D-Jz9BocjDlhpLzadn-181" target="H1D-Jz9BocjDlhpLzadn-144" edge="1">
          <mxGeometry width="50" height="50" relative="1" as="geometry">
            <mxPoint x="1200" y="3776" as="sourcePoint" />
            <mxPoint x="-209" y="3072" as="targetPoint" />
            <Array as="points">
              <mxPoint x="-296" y="3772" />
              <mxPoint x="-297" y="3042" />
            </Array>
          </mxGeometry>
        </mxCell>
        <mxCell id="H1D-Jz9BocjDlhpLzadn-186" value="" style="endArrow=classic;html=1;rounded=0;exitX=0;exitY=0.5;exitDx=0;exitDy=0;entryX=0.5;entryY=1;entryDx=0;entryDy=0;fontStyle=1" parent="1" source="H1D-Jz9BocjDlhpLzadn-183" target="H1D-Jz9BocjDlhpLzadn-144" edge="1">
          <mxGeometry width="50" height="50" relative="1" as="geometry">
            <mxPoint x="609" y="3373" as="sourcePoint" />
            <mxPoint x="-248" y="3809" as="targetPoint" />
            <Array as="points">
              <mxPoint x="-160" y="3831" />
            </Array>
          </mxGeometry>
        </mxCell>
        <mxCell id="H1D-Jz9BocjDlhpLzadn-187" value="" style="endArrow=classic;html=1;rounded=0;exitX=1;exitY=0.5;exitDx=0;exitDy=0;entryX=0.183;entryY=0.926;entryDx=0;entryDy=0;entryPerimeter=0;strokeWidth=3;fontStyle=1" parent="1" source="H1D-Jz9BocjDlhpLzadn-144" target="H1D-Jz9BocjDlhpLzadn-149" edge="1">
          <mxGeometry width="50" height="50" relative="1" as="geometry">
            <mxPoint x="-53" y="3161" as="sourcePoint" />
            <mxPoint x="-3" y="3111" as="targetPoint" />
            <Array as="points">
              <mxPoint x="-22" y="3087" />
              <mxPoint x="-22" y="3071" />
            </Array>
          </mxGeometry>
        </mxCell>
        <mxCell id="H1D-Jz9BocjDlhpLzadn-188" value="" style="endArrow=classic;html=1;rounded=0;exitX=0.987;exitY=0.661;exitDx=0;exitDy=0;exitPerimeter=0;entryX=0.17;entryY=0.991;entryDx=0;entryDy=0;entryPerimeter=0;strokeWidth=3;fontStyle=1" parent="1" source="H1D-Jz9BocjDlhpLzadn-144" target="H1D-Jz9BocjDlhpLzadn-150" edge="1">
          <mxGeometry width="50" height="50" relative="1" as="geometry">
            <mxPoint x="-4" y="3112" as="sourcePoint" />
            <mxPoint x="46" y="3062" as="targetPoint" />
            <Array as="points">
              <mxPoint x="-25" y="3145" />
              <mxPoint x="-25" y="3231" />
            </Array>
          </mxGeometry>
        </mxCell>
        <mxCell id="H1D-Jz9BocjDlhpLzadn-193" value="BrUn" style="endArrow=classic;html=1;rounded=0;exitX=1.007;exitY=0.553;exitDx=0;exitDy=0;exitPerimeter=0;entryX=0;entryY=0.5;entryDx=0;entryDy=0;fillColor=#b1ddf0;strokeColor=#10739e;fontStyle=1" parent="1" source="H1D-Jz9BocjDlhpLzadn-161" target="H1D-Jz9BocjDlhpLzadn-147" edge="1">
          <mxGeometry x="-0.4011" y="2" width="50" height="50" relative="1" as="geometry">
            <mxPoint x="13" y="2888" as="sourcePoint" />
            <mxPoint x="113" y="3007" as="targetPoint" />
            <Array as="points">
              <mxPoint x="125" y="2689" />
            </Array>
            <mxPoint as="offset" />
          </mxGeometry>
        </mxCell>
        <mxCell id="H1D-Jz9BocjDlhpLzadn-195" value="" style="endArrow=classic;html=1;rounded=0;entryX=0.453;entryY=1.001;entryDx=0;entryDy=0;entryPerimeter=0;exitX=0.5;exitY=0;exitDx=0;exitDy=0;fillColor=#b1ddf0;strokeColor=#10739e;fontStyle=1" parent="1" source="H1D-Jz9BocjDlhpLzadn-147" target="H1D-Jz9BocjDlhpLzadn-161" edge="1">
          <mxGeometry width="50" height="50" relative="1" as="geometry">
            <mxPoint x="-159" y="2843" as="sourcePoint" />
            <mxPoint x="568" y="2949" as="targetPoint" />
            <Array as="points">
              <mxPoint x="185" y="3188" />
              <mxPoint x="185" y="2832" />
              <mxPoint x="-159" y="2832" />
            </Array>
          </mxGeometry>
        </mxCell>
        <mxCell id="H1D-Jz9BocjDlhpLzadn-200" value="" style="endArrow=classic;html=1;rounded=0;exitX=0.998;exitY=0.576;exitDx=0;exitDy=0;exitPerimeter=0;entryX=0;entryY=0.5;entryDx=0;entryDy=0;strokeWidth=3;fontStyle=1" parent="1" source="H1D-Jz9BocjDlhpLzadn-108" target="H1D-Jz9BocjDlhpLzadn-161" edge="1">
          <mxGeometry width="50" height="50" relative="1" as="geometry">
            <mxPoint x="-29" y="2834" as="sourcePoint" />
            <mxPoint x="21" y="2784" as="targetPoint" />
            <Array as="points">
              <mxPoint x="-324" y="3120" />
              <mxPoint x="-324" y="2679" />
            </Array>
          </mxGeometry>
        </mxCell>
        <mxCell id="H1D-Jz9BocjDlhpLzadn-202" value="" style="endArrow=classic;html=1;rounded=0;entryX=0.002;entryY=0.622;entryDx=0;entryDy=0;entryPerimeter=0;strokeWidth=3;fontStyle=1" parent="1" target="H1D-Jz9BocjDlhpLzadn-144" edge="1">
          <mxGeometry width="50" height="50" relative="1" as="geometry">
            <mxPoint x="-324" y="3119" as="sourcePoint" />
            <mxPoint x="15" y="3032" as="targetPoint" />
            <Array as="points">
              <mxPoint x="-324" y="3131" />
            </Array>
          </mxGeometry>
        </mxCell>
        <mxCell id="H1D-Jz9BocjDlhpLzadn-203" value="" style="endArrow=classic;html=1;rounded=0;entryX=0.003;entryY=0.697;entryDx=0;entryDy=0;entryPerimeter=0;strokeWidth=3;fontStyle=1" parent="1" target="H1D-Jz9BocjDlhpLzadn-144" edge="1">
          <mxGeometry width="50" height="50" relative="1" as="geometry">
            <mxPoint x="-324" y="3130" as="sourcePoint" />
            <mxPoint x="15" y="3032" as="targetPoint" />
            <Array as="points">
              <mxPoint x="-324" y="3158" />
            </Array>
          </mxGeometry>
        </mxCell>
        <mxCell id="H1D-Jz9BocjDlhpLzadn-207" value="" style="endArrow=classic;html=1;rounded=0;entryX=0.25;entryY=1;entryDx=0;entryDy=0;strokeWidth=3;fontStyle=1" parent="1" target="H1D-Jz9BocjDlhpLzadn-143" edge="1">
          <mxGeometry width="50" height="50" relative="1" as="geometry">
            <mxPoint x="-633" y="3118" as="sourcePoint" />
            <mxPoint x="-633" y="3253" as="targetPoint" />
            <Array as="points">
              <mxPoint x="-633" y="3226" />
            </Array>
          </mxGeometry>
        </mxCell>
        <mxCell id="H1D-Jz9BocjDlhpLzadn-208" value="4" style="endArrow=classic;html=1;rounded=0;entryX=0.75;entryY=1;entryDx=0;entryDy=0;strokeWidth=3;fontStyle=1" parent="1" target="H1D-Jz9BocjDlhpLzadn-143" edge="1">
          <mxGeometry x="-1" y="7" width="50" height="50" relative="1" as="geometry">
            <mxPoint x="-635" y="3261" as="sourcePoint" />
            <mxPoint x="-513" y="3143" as="targetPoint" />
            <mxPoint x="-7" y="7" as="offset" />
          </mxGeometry>
        </mxCell>
        <mxCell id="H1D-Jz9BocjDlhpLzadn-210" value="" style="edgeStyle=orthogonalEdgeStyle;rounded=0;orthogonalLoop=1;jettySize=auto;html=1;strokeWidth=3;fontStyle=1" parent="1" source="H1D-Jz9BocjDlhpLzadn-209" target="H1D-Jz9BocjDlhpLzadn-141" edge="1">
          <mxGeometry relative="1" as="geometry" />
        </mxCell>
        <mxCell id="H1D-Jz9BocjDlhpLzadn-209" value="1&lt;span style=&quot;white-space: pre;&quot;&gt;&#x9;&lt;/span&gt;0" style="rounded=1;whiteSpace=wrap;html=1;arcSize=50;rotation=90;fontStyle=1;strokeWidth=2;" parent="1" vertex="1">
          <mxGeometry x="-849" y="3105" width="72" height="25" as="geometry" />
        </mxCell>
        <mxCell id="H1D-Jz9BocjDlhpLzadn-213" value="" style="endArrow=classic;html=1;rounded=0;exitX=0.5;exitY=0;exitDx=0;exitDy=0;entryX=0.691;entryY=0.979;entryDx=0;entryDy=0;entryPerimeter=0;strokeWidth=3;fontStyle=1" parent="1" target="H1D-Jz9BocjDlhpLzadn-209" edge="1">
          <mxGeometry width="50" height="50" relative="1" as="geometry">
            <mxPoint x="-550.4899999999998" y="3242.95" as="sourcePoint" />
            <mxPoint x="-826" y="3129" as="targetPoint" />
            <Array as="points">
              <mxPoint x="-470" y="3243" />
              <mxPoint x="-470" y="3325" />
              <mxPoint x="-896" y="3325" />
              <mxPoint x="-896" y="3131" />
            </Array>
          </mxGeometry>
        </mxCell>
        <mxCell id="H1D-Jz9BocjDlhpLzadn-214" value="PCSel" style="endArrow=classic;html=1;rounded=0;exitX=-0.002;exitY=0.351;exitDx=0;exitDy=0;exitPerimeter=0;entryX=0;entryY=0.5;entryDx=0;entryDy=0;strokeWidth=1;fontStyle=1" parent="1" target="H1D-Jz9BocjDlhpLzadn-209" edge="1">
          <mxGeometry width="50" height="50" relative="1" as="geometry">
            <mxPoint x="-210.24" y="2650" as="sourcePoint" />
            <mxPoint x="-776" y="3081" as="targetPoint" />
            <Array as="points">
              <mxPoint x="-813" y="2650" />
            </Array>
          </mxGeometry>
        </mxCell>
        <mxCell id="lxd2m9CHt8v5ix-Pc_Jc-2" value="" style="endArrow=classic;html=1;rounded=0;entryX=0.5;entryY=1;entryDx=0;entryDy=0;strokeWidth=3;fontStyle=1" parent="1" target="H1D-Jz9BocjDlhpLzadn-146" edge="1">
          <mxGeometry width="50" height="50" relative="1" as="geometry">
            <mxPoint x="-324" y="3157" as="sourcePoint" />
            <mxPoint x="-139.75" y="3356.25" as="targetPoint" />
            <Array as="points">
              <mxPoint x="-323" y="3392" />
            </Array>
          </mxGeometry>
        </mxCell>
        <mxCell id="lxd2m9CHt8v5ix-Pc_Jc-4" value="" style="endArrow=classic;html=1;rounded=0;exitX=0.5;exitY=0;exitDx=0;exitDy=0;entryX=-0.014;entryY=0.968;entryDx=0;entryDy=0;entryPerimeter=0;strokeWidth=3;fontStyle=1" parent="1" source="H1D-Jz9BocjDlhpLzadn-146" target="H1D-Jz9BocjDlhpLzadn-134" edge="1">
          <mxGeometry width="50" height="50" relative="1" as="geometry">
            <mxPoint x="-146" y="3350" as="sourcePoint" />
            <mxPoint x="121" y="3485" as="targetPoint" />
          </mxGeometry>
        </mxCell>
        <mxCell id="lxd2m9CHt8v5ix-Pc_Jc-5" value="&lt;span&gt;AddrA&lt;/span&gt;" style="endArrow=classic;html=1;rounded=0;entryX=-0.024;entryY=0.874;entryDx=0;entryDy=0;entryPerimeter=0;strokeWidth=3;fontStyle=1" parent="1" target="H1D-Jz9BocjDlhpLzadn-134" edge="1">
          <mxGeometry x="0.2016" y="4" width="50" height="50" relative="1" as="geometry">
            <mxPoint x="-283" y="3131" as="sourcePoint" />
            <mxPoint x="-283" y="3369" as="targetPoint" />
            <Array as="points">
              <mxPoint x="-283" y="3344" />
            </Array>
            <mxPoint as="offset" />
          </mxGeometry>
        </mxCell>
        <mxCell id="lxd2m9CHt8v5ix-Pc_Jc-6" value="&lt;span&gt;AddrB&lt;/span&gt;" style="endArrow=classic;html=1;rounded=0;entryX=-0.015;entryY=0.891;entryDx=0;entryDy=0;entryPerimeter=0;strokeWidth=3;fontStyle=1" parent="1" target="H1D-Jz9BocjDlhpLzadn-134" edge="1">
          <mxGeometry x="0.168" width="50" height="50" relative="1" as="geometry">
            <mxPoint x="-269" y="3157" as="sourcePoint" />
            <mxPoint x="69" y="3336" as="targetPoint" />
            <Array as="points">
              <mxPoint x="-269" y="3354" />
            </Array>
            <mxPoint as="offset" />
          </mxGeometry>
        </mxCell>
        <mxCell id="lxd2m9CHt8v5ix-Pc_Jc-7" value="" style="endArrow=classic;html=1;rounded=0;entryX=0;entryY=0.25;entryDx=0;entryDy=0;strokeWidth=3;fontStyle=1" parent="1" target="H1D-Jz9BocjDlhpLzadn-134" edge="1">
          <mxGeometry width="50" height="50" relative="1" as="geometry">
            <mxPoint x="-22" y="3071" as="sourcePoint" />
            <mxPoint x="-21" y="2976" as="targetPoint" />
            <Array as="points">
              <mxPoint x="-22" y="3032" />
            </Array>
          </mxGeometry>
        </mxCell>
        <mxCell id="lxd2m9CHt8v5ix-Pc_Jc-8" value="" style="endArrow=classic;html=1;rounded=0;entryX=-0.021;entryY=0.546;entryDx=0;entryDy=0;entryPerimeter=0;strokeWidth=3;fontStyle=1" parent="1" target="H1D-Jz9BocjDlhpLzadn-134" edge="1">
          <mxGeometry width="50" height="50" relative="1" as="geometry">
            <mxPoint x="-63" y="3146" as="sourcePoint" />
            <mxPoint x="77" y="3093" as="targetPoint" />
            <Array as="points">
              <mxPoint x="-63" y="3003" />
              <mxPoint x="213" y="3003" />
              <mxPoint x="213" y="3181" />
            </Array>
          </mxGeometry>
        </mxCell>
        <mxCell id="lxd2m9CHt8v5ix-Pc_Jc-9" value="" style="endArrow=classic;html=1;rounded=0;entryX=0.25;entryY=1;entryDx=0;entryDy=0;strokeWidth=3;fontStyle=1" parent="1" target="H1D-Jz9BocjDlhpLzadn-157" edge="1">
          <mxGeometry width="50" height="50" relative="1" as="geometry">
            <mxPoint x="313" y="3182" as="sourcePoint" />
            <mxPoint x="293" y="3042" as="targetPoint" />
          </mxGeometry>
        </mxCell>
        <mxCell id="lxd2m9CHt8v5ix-Pc_Jc-10" value="" style="endArrow=classic;html=1;rounded=0;entryX=0.25;entryY=1;entryDx=0;entryDy=0;exitX=1;exitY=0.25;exitDx=0;exitDy=0;fontStyle=1" parent="1" source="H1D-Jz9BocjDlhpLzadn-134" target="H1D-Jz9BocjDlhpLzadn-156" edge="1">
          <mxGeometry width="50" height="50" relative="1" as="geometry">
            <mxPoint x="208" y="3128" as="sourcePoint" />
            <mxPoint x="258" y="3078" as="targetPoint" />
          </mxGeometry>
        </mxCell>
        <mxCell id="lxd2m9CHt8v5ix-Pc_Jc-11" value="" style="endArrow=classic;html=1;rounded=0;entryX=0.661;entryY=0.929;entryDx=0;entryDy=0;exitX=0.5;exitY=0;exitDx=0;exitDy=0;entryPerimeter=0;strokeWidth=3;fontStyle=1" parent="1" source="H1D-Jz9BocjDlhpLzadn-156" target="H1D-Jz9BocjDlhpLzadn-158" edge="1">
          <mxGeometry width="50" height="50" relative="1" as="geometry">
            <mxPoint x="346" y="3187" as="sourcePoint" />
            <mxPoint x="396" y="3137" as="targetPoint" />
          </mxGeometry>
        </mxCell>
        <mxCell id="lxd2m9CHt8v5ix-Pc_Jc-12" value="" style="endArrow=classic;html=1;rounded=0;entryX=0.326;entryY=1.017;entryDx=0;entryDy=0;exitX=0.5;exitY=0;exitDx=0;exitDy=0;entryPerimeter=0;strokeWidth=3;fontStyle=1" parent="1" source="H1D-Jz9BocjDlhpLzadn-157" target="H1D-Jz9BocjDlhpLzadn-159" edge="1">
          <mxGeometry width="50" height="50" relative="1" as="geometry">
            <mxPoint x="346" y="3187" as="sourcePoint" />
            <mxPoint x="396" y="3137" as="targetPoint" />
          </mxGeometry>
        </mxCell>
        <mxCell id="lxd2m9CHt8v5ix-Pc_Jc-15" value="" style="endArrow=classic;html=1;rounded=0;entryX=0.336;entryY=1.001;entryDx=0;entryDy=0;entryPerimeter=0;exitX=0.5;exitY=0;exitDx=0;exitDy=0;strokeWidth=3;fontStyle=1" parent="1" source="H1D-Jz9BocjDlhpLzadn-158" target="H1D-Jz9BocjDlhpLzadn-155" edge="1">
          <mxGeometry width="50" height="50" relative="1" as="geometry">
            <mxPoint x="538" y="3135" as="sourcePoint" />
            <mxPoint x="588" y="3085" as="targetPoint" />
            <Array as="points">
              <mxPoint x="628" y="3046" />
              <mxPoint x="628" y="3093" />
            </Array>
          </mxGeometry>
        </mxCell>
        <mxCell id="lxd2m9CHt8v5ix-Pc_Jc-16" value="" style="endArrow=classic;html=1;rounded=0;exitX=0.5;exitY=0;exitDx=0;exitDy=0;entryX=0.707;entryY=1.001;entryDx=0;entryDy=0;entryPerimeter=0;strokeWidth=3;fontStyle=1" parent="1" source="H1D-Jz9BocjDlhpLzadn-159" target="H1D-Jz9BocjDlhpLzadn-155" edge="1">
          <mxGeometry width="50" height="50" relative="1" as="geometry">
            <mxPoint x="758" y="3216" as="sourcePoint" />
            <mxPoint x="808" y="3166" as="targetPoint" />
            <Array as="points">
              <mxPoint x="630" y="3219" />
              <mxPoint x="630" y="3182" />
            </Array>
          </mxGeometry>
        </mxCell>
        <mxCell id="lxd2m9CHt8v5ix-Pc_Jc-17" value="" style="endArrow=classic;html=1;rounded=0;exitX=0.5;exitY=0;exitDx=0;exitDy=0;entryX=-0.007;entryY=0.448;entryDx=0;entryDy=0;entryPerimeter=0;strokeWidth=3;fontStyle=1" parent="1" source="H1D-Jz9BocjDlhpLzadn-155" target="H1D-Jz9BocjDlhpLzadn-139" edge="1">
          <mxGeometry width="50" height="50" relative="1" as="geometry">
            <mxPoint x="1028" y="3471" as="sourcePoint" />
            <mxPoint x="1078" y="3421" as="targetPoint" />
          </mxGeometry>
        </mxCell>
        <mxCell id="lxd2m9CHt8v5ix-Pc_Jc-18" value="opcode[6:0]" style="endArrow=classic;html=1;rounded=0;entryX=-0.012;entryY=0.84;entryDx=0;entryDy=0;entryPerimeter=0;fontStyle=1" parent="1" target="H1D-Jz9BocjDlhpLzadn-152" edge="1">
          <mxGeometry width="50" height="50" relative="1" as="geometry">
            <mxPoint x="-324" y="2852" as="sourcePoint" />
            <mxPoint x="261" y="2853" as="targetPoint" />
          </mxGeometry>
        </mxCell>
        <mxCell id="lxd2m9CHt8v5ix-Pc_Jc-19" value="opcode[6:0]" style="endArrow=classic;html=1;rounded=0;exitX=1.023;exitY=0.837;exitDx=0;exitDy=0;exitPerimeter=0;entryX=-0.033;entryY=0.843;entryDx=0;entryDy=0;entryPerimeter=0;fontStyle=1" parent="1" source="H1D-Jz9BocjDlhpLzadn-152" target="H1D-Jz9BocjDlhpLzadn-153" edge="1">
          <mxGeometry width="50" height="50" relative="1" as="geometry">
            <mxPoint x="316" y="2893" as="sourcePoint" />
            <mxPoint x="1036" y="2850" as="targetPoint" />
          </mxGeometry>
        </mxCell>
        <mxCell id="lxd2m9CHt8v5ix-Pc_Jc-20" value="" style="endArrow=classic;html=1;rounded=0;entryX=0;entryY=0.027;entryDx=0;entryDy=0;entryPerimeter=0;fontStyle=1" parent="1" target="H1D-Jz9BocjDlhpLzadn-163" edge="1">
          <mxGeometry width="50" height="50" relative="1" as="geometry">
            <mxPoint x="1087" y="2850" as="sourcePoint" />
            <mxPoint x="1136" y="2919" as="targetPoint" />
            <Array as="points">
              <mxPoint x="1129" y="2850" />
              <mxPoint x="1130" y="3068" />
            </Array>
          </mxGeometry>
        </mxCell>
        <mxCell id="lxd2m9CHt8v5ix-Pc_Jc-21" value="" style="endArrow=classic;html=1;rounded=0;entryX=0.002;entryY=0.174;entryDx=0;entryDy=0;entryPerimeter=0;exitX=0.978;exitY=0.452;exitDx=0;exitDy=0;exitPerimeter=0;strokeWidth=3;fontStyle=1" parent="1" source="H1D-Jz9BocjDlhpLzadn-139" target="H1D-Jz9BocjDlhpLzadn-163" edge="1">
          <mxGeometry width="50" height="50" relative="1" as="geometry">
            <mxPoint x="1049" y="3178" as="sourcePoint" />
            <mxPoint x="1099" y="3128" as="targetPoint" />
            <Array as="points">
              <mxPoint x="1142" y="3134" />
              <mxPoint x="1142" y="3124" />
            </Array>
          </mxGeometry>
        </mxCell>
        <mxCell id="lxd2m9CHt8v5ix-Pc_Jc-22" value="opcode[6:0]&lt;span style=&quot;white-space: pre;&quot;&gt;&#x9;&lt;/span&gt;&lt;span style=&quot;white-space: pre;&quot;&gt;&#x9;&lt;span style=&quot;white-space: pre;&quot;&gt;&#x9;&lt;/span&gt;   &lt;/span&gt;STALL&lt;span style=&quot;white-space: pre;&quot;&gt;&#x9;&lt;/span&gt;&lt;span style=&quot;white-space: pre;&quot;&gt;&#x9;&lt;/span&gt;&lt;span style=&quot;white-space: pre;&quot;&gt;&#x9;&lt;/span&gt;&lt;span style=&quot;white-space: pre;&quot;&gt;&#x9;&lt;/span&gt;stallcontrol" style="rounded=0;whiteSpace=wrap;html=1;strokeWidth=2;align=left;fontStyle=1" parent="1" vertex="1">
          <mxGeometry x="-218" y="2514" width="330" height="29" as="geometry" />
        </mxCell>
        <mxCell id="lxd2m9CHt8v5ix-Pc_Jc-23" value="" style="endArrow=classic;html=1;rounded=0;entryX=0;entryY=0.5;entryDx=0;entryDy=0;strokeWidth=2;fontStyle=1" parent="1" target="lxd2m9CHt8v5ix-Pc_Jc-22" edge="1">
          <mxGeometry width="50" height="50" relative="1" as="geometry">
            <mxPoint x="-282" y="2852" as="sourcePoint" />
            <mxPoint x="-45" y="2769" as="targetPoint" />
            <Array as="points">
              <mxPoint x="-282" y="2528" />
            </Array>
          </mxGeometry>
        </mxCell>
        <mxCell id="lxd2m9CHt8v5ix-Pc_Jc-24" value="&lt;font style=&quot;font-size: 15px;&quot;&gt;stall_decision&lt;span style=&quot;white-space: pre;&quot;&gt;&#x9;&lt;/span&gt;&lt;span style=&quot;white-space: pre;&quot;&gt;&#x9;&lt;/span&gt;&lt;span style=&quot;white-space: pre;&quot;&gt;&#x9;&lt;/span&gt;flush&lt;/font&gt;&lt;div&gt;&lt;font style=&quot;font-size: 15px;&quot;&gt;&lt;span style=&quot;white-space: pre;&quot;&gt;&#x9;&lt;/span&gt;&lt;span style=&quot;white-space: pre;&quot;&gt;&#x9;&lt;/span&gt;&lt;span style=&quot;white-space: pre;&quot;&gt;&#x9;&lt;/span&gt;&lt;span style=&quot;white-space: pre;&quot;&gt;&#x9;&lt;/span&gt;&lt;span style=&quot;white-space: pre;&quot;&gt;&#x9;&lt;/span&gt;&lt;span style=&quot;white-space: pre;&quot;&gt;&#x9;&lt;/span&gt;&lt;span style=&quot;white-space: pre;&quot;&gt;&#x9;&lt;/span&gt;&lt;br&gt;&lt;/font&gt;&lt;div&gt;&lt;font style=&quot;font-size: 15px;&quot;&gt;&lt;span style=&quot;white-space: pre;&quot;&gt;&#x9;&lt;/span&gt;&lt;span style=&quot;white-space: pre;&quot;&gt;&#x9;&lt;/span&gt;&lt;span style=&quot;white-space: pre;&quot;&gt;&#x9;&lt;/span&gt;&lt;span style=&quot;white-space: pre;&quot;&gt;&#x9;&lt;/span&gt;&lt;span style=&quot;white-space: pre;&quot;&gt;&#x9;&lt;/span&gt;&lt;span style=&quot;white-space: pre;&quot;&gt;&#x9;&lt;/span&gt;stall&lt;/font&gt;&lt;/div&gt;&lt;div&gt;&lt;/div&gt;&lt;div&gt;&lt;br&gt;&lt;/div&gt;&lt;div&gt;&lt;font style=&quot;font-size: 15px;&quot;&gt;pcPlus4[31:0]&lt;span style=&quot;white-space: pre;&quot;&gt;&#x9;&lt;/span&gt;&lt;span style=&quot;white-space: pre;&quot;&gt;&#x9;&lt;/span&gt;&lt;span style=&quot;white-space: pre;&quot;&gt;&#x9;&lt;/span&gt;&amp;nbsp; &amp;nbsp; &amp;nbsp;&lt;/font&gt;&lt;span style=&quot;background-color: transparent; color: light-dark(rgb(0, 0, 0), rgb(255, 255, 255)); font-size: 15px;&quot;&gt;pc_out&lt;/span&gt;&lt;/div&gt;&lt;div&gt;&lt;/div&gt;&lt;div&gt;&lt;font style=&quot;font-size: 15px;&quot;&gt;&lt;br&gt;&lt;/font&gt;&lt;/div&gt;&lt;div&gt;&lt;br&gt;&lt;/div&gt;&lt;/div&gt;" style="rounded=0;whiteSpace=wrap;html=1;align=left;fontStyle=1" parent="1" vertex="1">
          <mxGeometry x="1677" y="3690" width="242" height="169" as="geometry" />
        </mxCell>
        <mxCell id="lxd2m9CHt8v5ix-Pc_Jc-27" value="&lt;font style=&quot;font-size: 25px;&quot;&gt;SHA&lt;/font&gt;" style="text;strokeColor=none;align=center;fillColor=none;html=1;verticalAlign=middle;whiteSpace=wrap;rounded=0;fontStyle=1" parent="1" vertex="1">
          <mxGeometry x="1773.5" y="3759.5" width="60" height="30" as="geometry" />
        </mxCell>
        <mxCell id="lxd2m9CHt8v5ix-Pc_Jc-28" value="" style="endArrow=classic;html=1;rounded=0;entryX=-0.007;entryY=0.121;entryDx=0;entryDy=0;entryPerimeter=0;strokeWidth=3;fontStyle=1" parent="1" target="H1D-Jz9BocjDlhpLzadn-108" edge="1">
          <mxGeometry width="50" height="50" relative="1" as="geometry">
            <mxPoint x="-470" y="3243" as="sourcePoint" />
            <mxPoint x="-84" y="3091" as="targetPoint" />
            <Array as="points">
              <mxPoint x="-470" y="2811" />
            </Array>
          </mxGeometry>
        </mxCell>
        <mxCell id="lxd2m9CHt8v5ix-Pc_Jc-31" value="pcPlus4" style="endArrow=classic;html=1;rounded=0;exitX=0.993;exitY=0.118;exitDx=0;exitDy=0;exitPerimeter=0;entryX=-0.041;entryY=0.716;entryDx=0;entryDy=0;entryPerimeter=0;strokeWidth=3;fontStyle=1" parent="1" source="H1D-Jz9BocjDlhpLzadn-108" target="H1D-Jz9BocjDlhpLzadn-152" edge="1">
          <mxGeometry width="50" height="50" relative="1" as="geometry">
            <mxPoint x="-486" y="3088" as="sourcePoint" />
            <mxPoint x="-436" y="3038" as="targetPoint" />
          </mxGeometry>
        </mxCell>
        <mxCell id="lxd2m9CHt8v5ix-Pc_Jc-32" value="pcPlus4" style="endArrow=classic;html=1;rounded=0;exitX=1.003;exitY=0.713;exitDx=0;exitDy=0;exitPerimeter=0;entryX=-0.007;entryY=0.719;entryDx=0;entryDy=0;entryPerimeter=0;strokeWidth=3;fontStyle=1" parent="1" source="H1D-Jz9BocjDlhpLzadn-152" target="H1D-Jz9BocjDlhpLzadn-153" edge="1">
          <mxGeometry width="50" height="50" relative="1" as="geometry">
            <mxPoint x="434" y="2756" as="sourcePoint" />
            <mxPoint x="484" y="2706" as="targetPoint" />
          </mxGeometry>
        </mxCell>
        <mxCell id="lxd2m9CHt8v5ix-Pc_Jc-33" value="" style="endArrow=classic;html=1;rounded=0;exitX=1;exitY=0.75;exitDx=0;exitDy=0;entryX=0.001;entryY=0.619;entryDx=0;entryDy=0;entryPerimeter=0;strokeWidth=3;fontStyle=1" parent="1" target="lxd2m9CHt8v5ix-Pc_Jc-24" edge="1">
          <mxGeometry width="50" height="50" relative="1" as="geometry">
            <mxPoint x="1087.0000000000005" y="2808" as="sourcePoint" />
            <mxPoint x="1160" y="3532" as="targetPoint" />
            <Array as="points">
              <mxPoint x="1177" y="2808" />
              <mxPoint x="1177" y="3473" />
              <mxPoint x="1638" y="3473" />
              <mxPoint x="1639" y="3795" />
            </Array>
          </mxGeometry>
        </mxCell>
        <mxCell id="lxd2m9CHt8v5ix-Pc_Jc-34" value="AddrD[4:0]" style="endArrow=classic;html=1;rounded=0;entryX=-0.01;entryY=0.885;entryDx=0;entryDy=0;entryPerimeter=0;fontStyle=1" parent="1" target="H1D-Jz9BocjDlhpLzadn-152" edge="1">
          <mxGeometry width="50" height="50" relative="1" as="geometry">
            <mxPoint x="-324" y="2870" as="sourcePoint" />
            <mxPoint x="408" y="3019" as="targetPoint" />
          </mxGeometry>
        </mxCell>
        <mxCell id="lxd2m9CHt8v5ix-Pc_Jc-35" value="AddrD[4:0]" style="endArrow=classic;html=1;rounded=0;exitX=1.005;exitY=0.88;exitDx=0;exitDy=0;exitPerimeter=0;entryX=-0.037;entryY=0.884;entryDx=0;entryDy=0;entryPerimeter=0;fontStyle=1" parent="1" source="H1D-Jz9BocjDlhpLzadn-152" target="H1D-Jz9BocjDlhpLzadn-153" edge="1">
          <mxGeometry width="50" height="50" relative="1" as="geometry">
            <mxPoint x="-92" y="2883" as="sourcePoint" />
            <mxPoint x="-42" y="2833" as="targetPoint" />
          </mxGeometry>
        </mxCell>
        <mxCell id="lxd2m9CHt8v5ix-Pc_Jc-36" value="RegWEn" style="endArrow=classic;html=1;rounded=0;entryX=0.006;entryY=0.118;entryDx=0;entryDy=0;entryPerimeter=0;exitX=0.761;exitY=0.069;exitDx=0;exitDy=0;exitPerimeter=0;fillColor=#b1ddf0;strokeColor=#10739e;fontStyle=1" parent="1" source="H1D-Jz9BocjDlhpLzadn-161" target="H1D-Jz9BocjDlhpLzadn-152" edge="1">
          <mxGeometry width="50" height="50" relative="1" as="geometry">
            <mxPoint x="-122" y="2593" as="sourcePoint" />
            <mxPoint x="-218" y="2547" as="targetPoint" />
          </mxGeometry>
        </mxCell>
        <mxCell id="lxd2m9CHt8v5ix-Pc_Jc-37" value="ASel" style="endArrow=classic;html=1;rounded=0;exitX=1;exitY=0;exitDx=0;exitDy=0;entryX=-0.01;entryY=0.162;entryDx=0;entryDy=0;entryPerimeter=0;fillColor=#b1ddf0;strokeColor=#10739e;fontStyle=1" parent="1" source="H1D-Jz9BocjDlhpLzadn-161" target="H1D-Jz9BocjDlhpLzadn-152" edge="1">
          <mxGeometry width="50" height="50" relative="1" as="geometry">
            <mxPoint x="-181" y="2742" as="sourcePoint" />
            <mxPoint x="-20.449650254360463" y="2649" as="targetPoint" />
          </mxGeometry>
        </mxCell>
        <mxCell id="lxd2m9CHt8v5ix-Pc_Jc-39" value="BSel" style="endArrow=classic;html=1;rounded=0;exitX=0.927;exitY=0.244;exitDx=0;exitDy=0;exitPerimeter=0;entryX=-0.025;entryY=0.222;entryDx=0;entryDy=0;entryPerimeter=0;fillColor=#b1ddf0;strokeColor=#10739e;fontStyle=1" parent="1" source="H1D-Jz9BocjDlhpLzadn-161" edge="1">
          <mxGeometry width="50" height="50" relative="1" as="geometry">
            <mxPoint x="-99.96000000000004" y="2627.4" as="sourcePoint" />
            <mxPoint x="261.25" y="2626.92" as="targetPoint" />
          </mxGeometry>
        </mxCell>
        <mxCell id="lxd2m9CHt8v5ix-Pc_Jc-40" value="ALUSel" style="endArrow=classic;html=1;rounded=0;exitX=0.972;exitY=0.322;exitDx=0;exitDy=0;exitPerimeter=0;entryX=-0.01;entryY=0.259;entryDx=0;entryDy=0;entryPerimeter=0;fillColor=#b1ddf0;strokeColor=#10739e;fontStyle=1" parent="1" edge="1">
          <mxGeometry width="50" height="50" relative="1" as="geometry">
            <mxPoint x="-96.3599999999999" y="2646.3999999999996" as="sourcePoint" />
            <mxPoint x="262" y="2646.24" as="targetPoint" />
          </mxGeometry>
        </mxCell>
        <mxCell id="lxd2m9CHt8v5ix-Pc_Jc-41" value="MemRW" style="endArrow=classic;html=1;rounded=0;entryX=-0.038;entryY=0.325;entryDx=0;entryDy=0;entryPerimeter=0;exitX=1;exitY=0.444;exitDx=0;exitDy=0;exitPerimeter=0;fillColor=#b1ddf0;strokeColor=#10739e;fontStyle=1" parent="1" source="H1D-Jz9BocjDlhpLzadn-161" edge="1">
          <mxGeometry width="50" height="50" relative="1" as="geometry">
            <mxPoint x="-92" y="2668.2000000000003" as="sourcePoint" />
            <mxPoint x="261.5999999999999" y="2667" as="targetPoint" />
          </mxGeometry>
        </mxCell>
        <mxCell id="lxd2m9CHt8v5ix-Pc_Jc-43" value="RegWEn" style="endArrow=classic;html=1;rounded=0;exitX=0.995;exitY=0.124;exitDx=0;exitDy=0;exitPerimeter=0;entryX=0.02;entryY=0.133;entryDx=0;entryDy=0;entryPerimeter=0;fillColor=#b1ddf0;strokeColor=#10739e;fontStyle=1" parent="1" source="H1D-Jz9BocjDlhpLzadn-152" target="H1D-Jz9BocjDlhpLzadn-153" edge="1">
          <mxGeometry width="50" height="50" relative="1" as="geometry">
            <mxPoint x="400" y="2598" as="sourcePoint" />
            <mxPoint x="1035" y="2595" as="targetPoint" />
          </mxGeometry>
        </mxCell>
        <mxCell id="lxd2m9CHt8v5ix-Pc_Jc-44" value="ASel" style="endArrow=classic;html=1;rounded=0;exitX=1.01;exitY=0.164;exitDx=0;exitDy=0;entryX=0;entryY=0.5;entryDx=0;entryDy=0;exitPerimeter=0;fillColor=#b1ddf0;strokeColor=#10739e;fontStyle=1" parent="1" source="H1D-Jz9BocjDlhpLzadn-152" target="H1D-Jz9BocjDlhpLzadn-158" edge="1">
          <mxGeometry x="0.0133" width="50" height="50" relative="1" as="geometry">
            <mxPoint x="411" y="2613" as="sourcePoint" />
            <mxPoint x="784" y="2613" as="targetPoint" />
            <Array as="points">
              <mxPoint x="569" y="2609" />
            </Array>
            <mxPoint as="offset" />
          </mxGeometry>
        </mxCell>
        <mxCell id="lxd2m9CHt8v5ix-Pc_Jc-45" value="BSel" style="endArrow=classic;html=1;rounded=0;exitX=0.992;exitY=0.211;exitDx=0;exitDy=0;exitPerimeter=0;entryX=0;entryY=0.5;entryDx=0;entryDy=0;fillColor=#b1ddf0;strokeColor=#10739e;fontStyle=1" parent="1" source="H1D-Jz9BocjDlhpLzadn-152" target="H1D-Jz9BocjDlhpLzadn-159" edge="1">
          <mxGeometry x="-0.4629" width="50" height="50" relative="1" as="geometry">
            <mxPoint x="420" y="2633" as="sourcePoint" />
            <mxPoint x="1036" y="2620" as="targetPoint" />
            <Array as="points">
              <mxPoint x="472" y="2626" />
              <mxPoint x="472" y="3150" />
              <mxPoint x="570" y="3150" />
            </Array>
            <mxPoint as="offset" />
          </mxGeometry>
        </mxCell>
        <mxCell id="lxd2m9CHt8v5ix-Pc_Jc-47" value="MemRW" style="endArrow=classic;html=1;rounded=0;entryX=0.015;entryY=0.333;entryDx=0;entryDy=0;entryPerimeter=0;exitX=1.006;exitY=0.33;exitDx=0;exitDy=0;exitPerimeter=0;fillColor=#b1ddf0;strokeColor=#10739e;fontStyle=1" parent="1" source="H1D-Jz9BocjDlhpLzadn-152" target="H1D-Jz9BocjDlhpLzadn-153" edge="1">
          <mxGeometry width="50" height="50" relative="1" as="geometry">
            <mxPoint x="429" y="2673" as="sourcePoint" />
            <mxPoint x="783.5999999999999" y="2672" as="targetPoint" />
          </mxGeometry>
        </mxCell>
        <mxCell id="lxd2m9CHt8v5ix-Pc_Jc-48" value="ALUSel" style="endArrow=classic;html=1;rounded=0;exitX=1.004;exitY=0.271;exitDx=0;exitDy=0;exitPerimeter=0;entryX=0;entryY=0.5;entryDx=0;entryDy=0;fillColor=#b1ddf0;strokeColor=#10739e;fontStyle=1" parent="1" source="H1D-Jz9BocjDlhpLzadn-152" target="H1D-Jz9BocjDlhpLzadn-155" edge="1">
          <mxGeometry width="50" height="50" relative="1" as="geometry">
            <mxPoint x="425.6400000000001" y="2651.3999999999996" as="sourcePoint" />
            <mxPoint x="784" y="2651.24" as="targetPoint" />
            <Array as="points">
              <mxPoint x="753" y="2648" />
            </Array>
          </mxGeometry>
        </mxCell>
        <mxCell id="lxd2m9CHt8v5ix-Pc_Jc-49" value="pc" style="endArrow=classic;html=1;rounded=0;entryX=0.012;entryY=0.081;entryDx=0;entryDy=0;entryPerimeter=0;strokeWidth=3;fontStyle=1" parent="1" target="H1D-Jz9BocjDlhpLzadn-108" edge="1">
          <mxGeometry width="50" height="50" relative="1" as="geometry">
            <mxPoint x="-633" y="3116" as="sourcePoint" />
            <mxPoint x="-633" y="2760" as="targetPoint" />
            <Array as="points">
              <mxPoint x="-633" y="2784" />
            </Array>
          </mxGeometry>
        </mxCell>
        <mxCell id="lxd2m9CHt8v5ix-Pc_Jc-50" value="pc" style="endArrow=classic;html=1;rounded=0;exitX=0.957;exitY=0.085;exitDx=0;exitDy=0;exitPerimeter=0;entryX=-0.008;entryY=0.652;entryDx=0;entryDy=0;entryPerimeter=0;strokeWidth=3;fontStyle=1" parent="1" source="H1D-Jz9BocjDlhpLzadn-108" target="H1D-Jz9BocjDlhpLzadn-152" edge="1">
          <mxGeometry width="50" height="50" relative="1" as="geometry">
            <mxPoint x="-180" y="2847" as="sourcePoint" />
            <mxPoint x="-130" y="2797" as="targetPoint" />
          </mxGeometry>
        </mxCell>
        <mxCell id="lxd2m9CHt8v5ix-Pc_Jc-51" value="pc" style="endArrow=classic;html=1;rounded=0;exitX=1.006;exitY=0.644;exitDx=0;exitDy=0;exitPerimeter=0;entryX=0.025;entryY=0.653;entryDx=0;entryDy=0;entryPerimeter=0;strokeWidth=3;fontStyle=1" parent="1" source="H1D-Jz9BocjDlhpLzadn-152" target="H1D-Jz9BocjDlhpLzadn-153" edge="1">
          <mxGeometry width="50" height="50" relative="1" as="geometry">
            <mxPoint x="344" y="2717" as="sourcePoint" />
            <mxPoint x="861" y="2779" as="targetPoint" />
          </mxGeometry>
        </mxCell>
        <mxCell id="lxd2m9CHt8v5ix-Pc_Jc-52" value="" style="endArrow=classic;html=1;rounded=0;entryX=0.33;entryY=1.02;entryDx=0;entryDy=0;entryPerimeter=0;strokeWidth=3;fontStyle=1" parent="1" target="H1D-Jz9BocjDlhpLzadn-158" edge="1">
          <mxGeometry width="50" height="50" relative="1" as="geometry">
            <mxPoint x="503" y="2783" as="sourcePoint" />
            <mxPoint x="768" y="2953" as="targetPoint" />
            <Array as="points">
              <mxPoint x="503" y="3034" />
            </Array>
          </mxGeometry>
        </mxCell>
        <mxCell id="lxd2m9CHt8v5ix-Pc_Jc-53" value="" style="endArrow=classic;html=1;rounded=0;exitX=0.992;exitY=0.963;exitDx=0;exitDy=0;exitPerimeter=0;entryX=0.75;entryY=1;entryDx=0;entryDy=0;strokeWidth=3;fontStyle=1" parent="1" source="H1D-Jz9BocjDlhpLzadn-134" target="H1D-Jz9BocjDlhpLzadn-159" edge="1">
          <mxGeometry width="50" height="50" relative="1" as="geometry">
            <mxPoint x="423" y="3356" as="sourcePoint" />
            <mxPoint x="473" y="3306" as="targetPoint" />
            <Array as="points">
              <mxPoint x="483" y="3390" />
              <mxPoint x="483" y="3237" />
            </Array>
          </mxGeometry>
        </mxCell>
        <mxCell id="lxd2m9CHt8v5ix-Pc_Jc-54" value="&lt;font style=&quot;font-size: 25px;&quot;&gt;&lt;span&gt;PC&lt;/span&gt;&lt;/font&gt;" style="text;strokeColor=none;align=center;fillColor=none;html=1;verticalAlign=middle;whiteSpace=wrap;rounded=0;fontStyle=1" parent="1" vertex="1">
          <mxGeometry x="-719" y="3105" width="60" height="30" as="geometry" />
        </mxCell>
        <mxCell id="lxd2m9CHt8v5ix-Pc_Jc-55" value="&lt;font style=&quot;font-size: 20px;&quot;&gt;DMEM&lt;/font&gt;" style="text;strokeColor=none;align=center;fillColor=none;html=1;verticalAlign=middle;whiteSpace=wrap;rounded=0;fontStyle=1" parent="1" vertex="1">
          <mxGeometry x="1608" y="3135" width="60" height="30" as="geometry" />
        </mxCell>
        <mxCell id="lxd2m9CHt8v5ix-Pc_Jc-57" value="&lt;font style=&quot;font-size: 22px;&quot;&gt;0&lt;span style=&quot;white-space: pre;&quot;&gt;&#x9;&lt;/span&gt;1&lt;span style=&quot;white-space: pre;&quot;&gt;&#x9;&lt;/span&gt;2&lt;/font&gt;" style="rounded=1;whiteSpace=wrap;html=1;arcSize=50;rotation=270;fontStyle=1;strokeWidth=2;flipV=0;flipH=1;direction=west;" parent="1" vertex="1">
          <mxGeometry x="1915" y="3002" width="175" height="48" as="geometry" />
        </mxCell>
        <mxCell id="lxd2m9CHt8v5ix-Pc_Jc-58" value="funct3[2:0]" style="endArrow=classic;html=1;rounded=0;entryX=-0.02;entryY=0.923;entryDx=0;entryDy=0;entryPerimeter=0;fontStyle=1" parent="1" target="H1D-Jz9BocjDlhpLzadn-152" edge="1">
          <mxGeometry width="50" height="50" relative="1" as="geometry">
            <mxPoint x="-323" y="2884" as="sourcePoint" />
            <mxPoint x="424" y="2851" as="targetPoint" />
          </mxGeometry>
        </mxCell>
        <mxCell id="lxd2m9CHt8v5ix-Pc_Jc-59" value="funct3[2:0]" style="endArrow=classic;html=1;rounded=0;exitX=1.01;exitY=0.922;exitDx=0;exitDy=0;exitPerimeter=0;entryX=-0.064;entryY=0.928;entryDx=0;entryDy=0;entryPerimeter=0;fontStyle=1" parent="1" source="H1D-Jz9BocjDlhpLzadn-152" target="H1D-Jz9BocjDlhpLzadn-153" edge="1">
          <mxGeometry width="50" height="50" relative="1" as="geometry">
            <mxPoint x="565" y="2847" as="sourcePoint" />
            <mxPoint x="1034" y="2884" as="targetPoint" />
          </mxGeometry>
        </mxCell>
        <mxCell id="lxd2m9CHt8v5ix-Pc_Jc-60" value="" style="endArrow=classic;html=1;rounded=0;exitX=0.996;exitY=0.332;exitDx=0;exitDy=0;exitPerimeter=0;entryX=0.006;entryY=0.099;entryDx=0;entryDy=0;entryPerimeter=0;fillColor=#b1ddf0;strokeColor=#10739e;fontStyle=1" parent="1" source="H1D-Jz9BocjDlhpLzadn-153" target="H1D-Jz9BocjDlhpLzadn-163" edge="1">
          <mxGeometry width="50" height="50" relative="1" as="geometry">
            <mxPoint x="704" y="2791" as="sourcePoint" />
            <mxPoint x="754" y="2741" as="targetPoint" />
            <Array as="points">
              <mxPoint x="1149" y="2667" />
              <mxPoint x="1149" y="3095" />
            </Array>
          </mxGeometry>
        </mxCell>
        <mxCell id="lxd2m9CHt8v5ix-Pc_Jc-61" value="" style="endArrow=classic;html=1;rounded=0;entryX=0.006;entryY=0.403;entryDx=0;entryDy=0;entryPerimeter=0;fontStyle=1" parent="1" target="H1D-Jz9BocjDlhpLzadn-163" edge="1">
          <mxGeometry width="50" height="50" relative="1" as="geometry">
            <mxPoint x="1087" y="2879" as="sourcePoint" />
            <mxPoint x="838" y="2754" as="targetPoint" />
            <Array as="points">
              <mxPoint x="1115" y="2879" />
              <mxPoint x="1115" y="3210" />
            </Array>
          </mxGeometry>
        </mxCell>
        <mxCell id="lxd2m9CHt8v5ix-Pc_Jc-62" value="" style="endArrow=classic;html=1;rounded=0;strokeWidth=3;fontStyle=1" parent="1" edge="1">
          <mxGeometry width="50" height="50" relative="1" as="geometry">
            <mxPoint x="540" y="3207" as="sourcePoint" />
            <mxPoint x="1035" y="3318" as="targetPoint" />
            <Array as="points">
              <mxPoint x="540" y="3318" />
            </Array>
          </mxGeometry>
        </mxCell>
        <mxCell id="lxd2m9CHt8v5ix-Pc_Jc-63" value="" style="endArrow=classic;html=1;rounded=0;exitX=1.018;exitY=0.823;exitDx=0;exitDy=0;exitPerimeter=0;entryX=0;entryY=0.25;entryDx=0;entryDy=0;strokeWidth=3;fontStyle=1" parent="1" source="H1D-Jz9BocjDlhpLzadn-139" target="H1D-Jz9BocjDlhpLzadn-163" edge="1">
          <mxGeometry width="50" height="50" relative="1" as="geometry">
            <mxPoint x="797" y="3261" as="sourcePoint" />
            <mxPoint x="847" y="3211" as="targetPoint" />
            <Array as="points">
              <mxPoint x="1129" y="3320" />
              <mxPoint x="1129" y="3152" />
            </Array>
          </mxGeometry>
        </mxCell>
        <mxCell id="lxd2m9CHt8v5ix-Pc_Jc-64" value="" style="endArrow=classic;html=1;rounded=0;exitX=1.04;exitY=0.125;exitDx=0;exitDy=0;exitPerimeter=0;entryX=0.001;entryY=0.483;entryDx=0;entryDy=0;entryPerimeter=0;fillColor=#b1ddf0;strokeColor=#10739e;fontStyle=1" parent="1" target="H1D-Jz9BocjDlhpLzadn-163" edge="1">
          <mxGeometry width="50" height="50" relative="1" as="geometry">
            <mxPoint x="1089.0000000000005" y="2596" as="sourcePoint" />
            <mxPoint x="1197" y="2596" as="targetPoint" />
            <Array as="points">
              <mxPoint x="1163" y="2596" />
              <mxPoint x="1163" y="3240" />
            </Array>
          </mxGeometry>
        </mxCell>
        <mxCell id="lxd2m9CHt8v5ix-Pc_Jc-65" value="" style="endArrow=classic;html=1;rounded=0;exitX=1.013;exitY=0.881;exitDx=0;exitDy=0;exitPerimeter=0;entryX=-0.005;entryY=0.555;entryDx=0;entryDy=0;entryPerimeter=0;fontStyle=1" parent="1" source="H1D-Jz9BocjDlhpLzadn-153" target="H1D-Jz9BocjDlhpLzadn-163" edge="1">
          <mxGeometry width="50" height="50" relative="1" as="geometry">
            <mxPoint x="1155" y="2823" as="sourcePoint" />
            <mxPoint x="1205" y="2773" as="targetPoint" />
            <Array as="points">
              <mxPoint x="1107" y="2864" />
              <mxPoint x="1107" y="3268" />
            </Array>
          </mxGeometry>
        </mxCell>
        <mxCell id="lxd2m9CHt8v5ix-Pc_Jc-66" value="DataR" style="text;strokeColor=none;align=center;fillColor=none;html=1;verticalAlign=middle;whiteSpace=wrap;rounded=0;fontStyle=1" parent="1" vertex="1">
          <mxGeometry x="1686" y="3135" width="60" height="30" as="geometry" />
        </mxCell>
        <mxCell id="lxd2m9CHt8v5ix-Pc_Jc-67" value="" style="endArrow=classic;html=1;rounded=0;entryX=-0.028;entryY=0.484;entryDx=0;entryDy=0;entryPerimeter=0;exitX=1;exitY=0.5;exitDx=0;exitDy=0;strokeWidth=3;fontStyle=1" parent="1" source="lxd2m9CHt8v5ix-Pc_Jc-66" target="H1D-Jz9BocjDlhpLzadn-140" edge="1">
          <mxGeometry width="50" height="50" relative="1" as="geometry">
            <mxPoint x="1432" y="3137" as="sourcePoint" />
            <mxPoint x="1482" y="3087" as="targetPoint" />
          </mxGeometry>
        </mxCell>
        <mxCell id="lxd2m9CHt8v5ix-Pc_Jc-70" value="" style="endArrow=classic;html=1;rounded=0;entryX=-0.028;entryY=0.226;entryDx=0;entryDy=0;entryPerimeter=0;strokeWidth=3;fontStyle=1" parent="1" target="H1D-Jz9BocjDlhpLzadn-140" edge="1">
          <mxGeometry width="50" height="50" relative="1" as="geometry">
            <mxPoint x="1142" y="3125" as="sourcePoint" />
            <mxPoint x="1141" y="2995" as="targetPoint" />
            <Array as="points">
              <mxPoint x="1142" y="3019" />
            </Array>
          </mxGeometry>
        </mxCell>
        <mxCell id="lxd2m9CHt8v5ix-Pc_Jc-71" value="" style="endArrow=classic;html=1;rounded=0;entryX=-0.03;entryY=0.722;entryDx=0;entryDy=0;entryPerimeter=0;strokeWidth=3;fontStyle=1" parent="1" target="H1D-Jz9BocjDlhpLzadn-154" edge="1">
          <mxGeometry width="50" height="50" relative="1" as="geometry">
            <mxPoint x="1177" y="2808" as="sourcePoint" />
            <mxPoint x="1265" y="2730" as="targetPoint" />
          </mxGeometry>
        </mxCell>
        <mxCell id="lxd2m9CHt8v5ix-Pc_Jc-72" value="" style="endArrow=classic;html=1;rounded=0;exitX=1.014;exitY=0.223;exitDx=0;exitDy=0;exitPerimeter=0;strokeWidth=3;fontStyle=1" parent="1" source="H1D-Jz9BocjDlhpLzadn-140" edge="1">
          <mxGeometry width="50" height="50" relative="1" as="geometry">
            <mxPoint x="1500" y="3107" as="sourcePoint" />
            <mxPoint x="1977" y="3019" as="targetPoint" />
          </mxGeometry>
        </mxCell>
        <mxCell id="lxd2m9CHt8v5ix-Pc_Jc-73" value="" style="endArrow=classic;html=1;rounded=0;exitX=1.008;exitY=0.488;exitDx=0;exitDy=0;entryX=0.75;entryY=1;entryDx=0;entryDy=0;exitPerimeter=0;strokeWidth=3;fontStyle=1" parent="1" source="H1D-Jz9BocjDlhpLzadn-140" target="lxd2m9CHt8v5ix-Pc_Jc-57" edge="1">
          <mxGeometry width="50" height="50" relative="1" as="geometry">
            <mxPoint x="1505" y="3088" as="sourcePoint" />
            <mxPoint x="1555" y="3038" as="targetPoint" />
            <Array as="points">
              <mxPoint x="1932" y="3152" />
              <mxPoint x="1932" y="3070" />
            </Array>
          </mxGeometry>
        </mxCell>
        <mxCell id="lxd2m9CHt8v5ix-Pc_Jc-74" value="" style="endArrow=classic;html=1;rounded=0;entryX=0.25;entryY=1;entryDx=0;entryDy=0;exitX=0.988;exitY=0.727;exitDx=0;exitDy=0;exitPerimeter=0;strokeWidth=3;fontStyle=1" parent="1" source="H1D-Jz9BocjDlhpLzadn-154" target="lxd2m9CHt8v5ix-Pc_Jc-57" edge="1">
          <mxGeometry width="50" height="50" relative="1" as="geometry">
            <mxPoint x="1690" y="2892" as="sourcePoint" />
            <mxPoint x="1740" y="2842" as="targetPoint" />
            <Array as="points">
              <mxPoint x="1933" y="2809" />
              <mxPoint x="1933" y="2982" />
            </Array>
          </mxGeometry>
        </mxCell>
        <mxCell id="lxd2m9CHt8v5ix-Pc_Jc-75" value="" style="endArrow=classic;html=1;rounded=0;exitX=0.996;exitY=0.804;exitDx=0;exitDy=0;exitPerimeter=0;entryX=0.5;entryY=0;entryDx=0;entryDy=0;strokeWidth=2;fillColor=#b1ddf0;strokeColor=#10739e;fontStyle=1" parent="1" source="H1D-Jz9BocjDlhpLzadn-140" target="H1D-Jz9BocjDlhpLzadn-144" edge="1">
          <mxGeometry width="50" height="50" relative="1" as="geometry">
            <mxPoint x="1917" y="3339" as="sourcePoint" />
            <mxPoint x="-275" y="2945" as="targetPoint" />
            <Array as="points">
              <mxPoint x="2363" y="3310" />
              <mxPoint x="2363" y="2437" />
              <mxPoint x="-297" y="2431" />
              <mxPoint x="-297" y="2844" />
              <mxPoint x="-160" y="2844" />
            </Array>
          </mxGeometry>
        </mxCell>
        <mxCell id="lxd2m9CHt8v5ix-Pc_Jc-77" value="" style="endArrow=classic;html=1;rounded=0;exitX=0.978;exitY=0.872;exitDx=0;exitDy=0;exitPerimeter=0;entryX=0.005;entryY=0.538;entryDx=0;entryDy=0;entryPerimeter=0;strokeWidth=2;fontStyle=1" parent="1" source="H1D-Jz9BocjDlhpLzadn-140" target="H1D-Jz9BocjDlhpLzadn-144" edge="1">
          <mxGeometry width="50" height="50" relative="1" as="geometry">
            <mxPoint x="1075" y="2931" as="sourcePoint" />
            <mxPoint x="1125" y="2881" as="targetPoint" />
            <Array as="points">
              <mxPoint x="2467" y="3346" />
              <mxPoint x="2467" y="2385" />
              <mxPoint x="-265" y="2381" />
              <mxPoint x="-269" y="3101" />
            </Array>
          </mxGeometry>
        </mxCell>
        <mxCell id="lxd2m9CHt8v5ix-Pc_Jc-78" value="" style="endArrow=classic;html=1;rounded=0;exitX=0.5;exitY=0;exitDx=0;exitDy=0;entryX=-0.005;entryY=0.458;entryDx=0;entryDy=0;entryPerimeter=0;strokeWidth=3;fontStyle=1" parent="1" source="lxd2m9CHt8v5ix-Pc_Jc-57" target="H1D-Jz9BocjDlhpLzadn-144" edge="1">
          <mxGeometry width="50" height="50" relative="1" as="geometry">
            <mxPoint x="99" y="2891" as="sourcePoint" />
            <mxPoint x="149" y="2841" as="targetPoint" />
            <Array as="points">
              <mxPoint x="2287" y="3026" />
              <mxPoint x="2291" y="2473" />
              <mxPoint x="-250" y="2477" />
              <mxPoint x="-250" y="3072" />
            </Array>
          </mxGeometry>
        </mxCell>
        <mxCell id="lxd2m9CHt8v5ix-Pc_Jc-80" value="" style="endArrow=classic;html=1;rounded=0;entryX=0.25;entryY=1;entryDx=0;entryDy=0;strokeWidth=3;fontStyle=1" parent="1" target="H1D-Jz9BocjDlhpLzadn-209" edge="1">
          <mxGeometry width="50" height="50" relative="1" as="geometry">
            <mxPoint x="940.4444444444445" y="3133" as="sourcePoint" />
            <mxPoint x="-399" y="2932" as="targetPoint" />
            <Array as="points">
              <mxPoint x="940" y="3457" />
              <mxPoint x="-929" y="3462" />
              <mxPoint x="-929" y="3100" />
            </Array>
          </mxGeometry>
        </mxCell>
        <mxCell id="lxd2m9CHt8v5ix-Pc_Jc-81" value="RS1_EX" style="endArrow=classic;html=1;rounded=0;entryX=0.648;entryY=-0.001;entryDx=0;entryDy=0;entryPerimeter=0;fillColor=#e51400;strokeColor=#B20000;fontStyle=1" parent="1" target="H1D-Jz9BocjDlhpLzadn-138" edge="1">
          <mxGeometry x="0.0001" y="6" width="50" height="50" relative="1" as="geometry">
            <mxPoint x="314" y="3342" as="sourcePoint" />
            <mxPoint x="600" y="3279" as="targetPoint" />
            <Array as="points">
              <mxPoint x="743" y="3342" />
            </Array>
            <mxPoint as="offset" />
          </mxGeometry>
        </mxCell>
        <mxCell id="lxd2m9CHt8v5ix-Pc_Jc-82" value="RS2_EX" style="endArrow=classic;html=1;rounded=0;entryX=0.5;entryY=0;entryDx=0;entryDy=0;fillColor=#e51400;strokeColor=#B20000;fontStyle=1" parent="1" target="H1D-Jz9BocjDlhpLzadn-138" edge="1">
          <mxGeometry x="0.1858" y="2" width="50" height="50" relative="1" as="geometry">
            <mxPoint x="313" y="3359" as="sourcePoint" />
            <mxPoint x="499" y="3455" as="targetPoint" />
            <Array as="points">
              <mxPoint x="659" y="3359" />
            </Array>
            <mxPoint as="offset" />
          </mxGeometry>
        </mxCell>
        <mxCell id="lxd2m9CHt8v5ix-Pc_Jc-83" value="RS1_ID" style="endArrow=classic;html=1;rounded=0;entryX=0.32;entryY=0.011;entryDx=0;entryDy=0;entryPerimeter=0;fillColor=#e51400;strokeColor=#B20000;fontStyle=1" parent="1" target="H1D-Jz9BocjDlhpLzadn-138" edge="1">
          <mxGeometry width="50" height="50" relative="1" as="geometry">
            <mxPoint x="188" y="3345" as="sourcePoint" />
            <mxPoint x="316" y="3316" as="targetPoint" />
            <Array as="points">
              <mxPoint x="188" y="3433" />
              <mxPoint x="556" y="3433" />
            </Array>
          </mxGeometry>
        </mxCell>
        <mxCell id="lxd2m9CHt8v5ix-Pc_Jc-84" value="RS2_ID" style="endArrow=classic;html=1;rounded=0;entryX=0.156;entryY=0.012;entryDx=0;entryDy=0;entryPerimeter=0;fillColor=#e51400;strokeColor=#B20000;fontStyle=1" parent="1" target="H1D-Jz9BocjDlhpLzadn-138" edge="1">
          <mxGeometry width="50" height="50" relative="1" as="geometry">
            <mxPoint x="165" y="3354" as="sourcePoint" />
            <mxPoint x="316" y="3116" as="targetPoint" />
            <Array as="points">
              <mxPoint x="165" y="3445" />
              <mxPoint x="463" y="3445" />
            </Array>
          </mxGeometry>
        </mxCell>
        <mxCell id="lxd2m9CHt8v5ix-Pc_Jc-85" value="fwdBranchA" style="endArrow=classic;html=1;rounded=0;exitX=0;exitY=0.25;exitDx=0;exitDy=0;entryX=1;entryY=0.5;entryDx=0;entryDy=0;fillColor=#e51400;strokeColor=#B20000;fontStyle=1" parent="1" source="H1D-Jz9BocjDlhpLzadn-138" target="H1D-Jz9BocjDlhpLzadn-149" edge="1">
          <mxGeometry x="-0.0512" y="2" width="50" height="50" relative="1" as="geometry">
            <mxPoint x="195" y="3219" as="sourcePoint" />
            <mxPoint x="245" y="3169" as="targetPoint" />
            <Array as="points">
              <mxPoint x="-3" y="3537" />
              <mxPoint x="-3" y="3197" />
              <mxPoint x="49" y="3197" />
            </Array>
            <mxPoint y="1" as="offset" />
          </mxGeometry>
        </mxCell>
        <mxCell id="lxd2m9CHt8v5ix-Pc_Jc-86" value="fwdBranchB" style="endArrow=classic;html=1;rounded=0;entryX=1;entryY=0.5;entryDx=0;entryDy=0;exitX=0;exitY=0.75;exitDx=0;exitDy=0;fillColor=#e51400;strokeColor=#B20000;fontStyle=1" parent="1" source="H1D-Jz9BocjDlhpLzadn-138" target="H1D-Jz9BocjDlhpLzadn-150" edge="1">
          <mxGeometry width="50" height="50" relative="1" as="geometry">
            <mxPoint x="119" y="3539" as="sourcePoint" />
            <mxPoint x="129" y="3359" as="targetPoint" />
            <Array as="points">
              <mxPoint x="49" y="3626" />
            </Array>
          </mxGeometry>
        </mxCell>
        <mxCell id="lxd2m9CHt8v5ix-Pc_Jc-87" value="RegWEn_EX" style="endArrow=classic;html=1;rounded=0;entryX=1;entryY=0.25;entryDx=0;entryDy=0;fillColor=#e51400;strokeColor=#B20000;fontStyle=1" parent="1" target="H1D-Jz9BocjDlhpLzadn-138" edge="1">
          <mxGeometry x="0.8389" width="50" height="50" relative="1" as="geometry">
            <mxPoint x="985" y="2595" as="sourcePoint" />
            <mxPoint x="572" y="3100" as="targetPoint" />
            <Array as="points">
              <mxPoint x="982" y="3537" />
            </Array>
            <mxPoint as="offset" />
          </mxGeometry>
        </mxCell>
        <mxCell id="lxd2m9CHt8v5ix-Pc_Jc-88" value="RegWEn_MA" style="endArrow=classic;html=1;rounded=0;entryX=1;entryY=0.5;entryDx=0;entryDy=0;fillColor=#e51400;strokeColor=#B20000;fontStyle=1" parent="1" target="H1D-Jz9BocjDlhpLzadn-138" edge="1">
          <mxGeometry width="50" height="50" relative="1" as="geometry">
            <mxPoint x="1163" y="3240" as="sourcePoint" />
            <mxPoint x="1567" y="3411" as="targetPoint" />
            <Array as="points">
              <mxPoint x="1163" y="3582" />
            </Array>
          </mxGeometry>
        </mxCell>
        <mxCell id="lxd2m9CHt8v5ix-Pc_Jc-89" value="RegWEn_WB" style="endArrow=classic;html=1;rounded=0;entryX=1;entryY=0.75;entryDx=0;entryDy=0;fillColor=#e51400;strokeColor=#B20000;fontStyle=1" parent="1" target="H1D-Jz9BocjDlhpLzadn-138" edge="1">
          <mxGeometry x="0.6143" y="-4" width="50" height="50" relative="1" as="geometry">
            <mxPoint x="1913" y="3310" as="sourcePoint" />
            <mxPoint x="1480" y="3554" as="targetPoint" />
            <Array as="points">
              <mxPoint x="1913" y="3626" />
            </Array>
            <mxPoint as="offset" />
          </mxGeometry>
        </mxCell>
        <mxCell id="lxd2m9CHt8v5ix-Pc_Jc-90" value="fwdB" style="endArrow=classic;html=1;rounded=0;exitX=0.25;exitY=0;exitDx=0;exitDy=0;entryX=1;entryY=0.5;entryDx=0;entryDy=0;fillColor=#e51400;strokeColor=#B20000;fontStyle=1" parent="1" source="H1D-Jz9BocjDlhpLzadn-138" target="H1D-Jz9BocjDlhpLzadn-157" edge="1">
          <mxGeometry x="0.6589" y="4" width="50" height="50" relative="1" as="geometry">
            <mxPoint x="650" y="3266" as="sourcePoint" />
            <mxPoint x="507" y="3259" as="targetPoint" />
            <Array as="points">
              <mxPoint x="516" y="3298" />
              <mxPoint x="420" y="3298" />
            </Array>
            <mxPoint x="-1" as="offset" />
          </mxGeometry>
        </mxCell>
        <mxCell id="lxd2m9CHt8v5ix-Pc_Jc-91" value="fwdA" style="endArrow=classic;html=1;rounded=0;exitX=0.583;exitY=0.017;exitDx=0;exitDy=0;exitPerimeter=0;entryX=1;entryY=0.5;entryDx=0;entryDy=0;fillColor=#e51400;strokeColor=#B20000;fontStyle=1" parent="1" source="H1D-Jz9BocjDlhpLzadn-138" target="H1D-Jz9BocjDlhpLzadn-156" edge="1">
          <mxGeometry width="50" height="50" relative="1" as="geometry">
            <mxPoint x="520" y="3241" as="sourcePoint" />
            <mxPoint x="570" y="3191" as="targetPoint" />
            <Array as="points">
              <mxPoint x="706" y="3282" />
              <mxPoint x="617" y="3282" />
              <mxPoint x="617" y="3134" />
              <mxPoint x="419" y="3134" />
            </Array>
          </mxGeometry>
        </mxCell>
        <mxCell id="lxd2m9CHt8v5ix-Pc_Jc-92" value="" style="endArrow=classic;html=1;rounded=0;entryX=0.75;entryY=1;entryDx=0;entryDy=0;strokeWidth=3;fontStyle=1" parent="1" target="H1D-Jz9BocjDlhpLzadn-157" edge="1">
          <mxGeometry width="50" height="50" relative="1" as="geometry">
            <mxPoint x="347" y="2475" as="sourcePoint" />
            <mxPoint x="364" y="2912" as="targetPoint" />
            <Array as="points">
              <mxPoint x="345" y="3232" />
            </Array>
          </mxGeometry>
        </mxCell>
        <mxCell id="lxd2m9CHt8v5ix-Pc_Jc-93" value="" style="endArrow=classic;html=1;rounded=0;entryX=0.75;entryY=1;entryDx=0;entryDy=0;fontStyle=1" parent="1" target="H1D-Jz9BocjDlhpLzadn-156" edge="1">
          <mxGeometry width="50" height="50" relative="1" as="geometry">
            <mxPoint x="346" y="3083" as="sourcePoint" />
            <mxPoint x="573" y="2991" as="targetPoint" />
          </mxGeometry>
        </mxCell>
        <mxCell id="lxd2m9CHt8v5ix-Pc_Jc-95" value="" style="endArrow=classic;html=1;rounded=0;entryX=0.5;entryY=1;entryDx=0;entryDy=0;strokeWidth=3;fontStyle=1" parent="1" target="H1D-Jz9BocjDlhpLzadn-157" edge="1">
          <mxGeometry width="50" height="50" relative="1" as="geometry">
            <mxPoint x="1142" y="3019" as="sourcePoint" />
            <mxPoint x="1142" y="2512" as="targetPoint" />
            <Array as="points">
              <mxPoint x="1142" y="2515" />
              <mxPoint x="380" y="2515" />
              <mxPoint x="376" y="3207" />
            </Array>
          </mxGeometry>
        </mxCell>
        <mxCell id="lxd2m9CHt8v5ix-Pc_Jc-96" value="" style="endArrow=classic;html=1;rounded=0;entryX=0.5;entryY=1;entryDx=0;entryDy=0;fontStyle=1" parent="1" target="H1D-Jz9BocjDlhpLzadn-156" edge="1">
          <mxGeometry width="50" height="50" relative="1" as="geometry">
            <mxPoint x="377" y="3058" as="sourcePoint" />
            <mxPoint x="750" y="3000" as="targetPoint" />
          </mxGeometry>
        </mxCell>
        <mxCell id="lxd2m9CHt8v5ix-Pc_Jc-97" value="" style="endArrow=classic;html=1;rounded=0;entryX=0.398;entryY=1.027;entryDx=0;entryDy=0;entryPerimeter=0;strokeWidth=3;fontStyle=1" parent="1" target="H1D-Jz9BocjDlhpLzadn-149" edge="1">
          <mxGeometry width="50" height="50" relative="1" as="geometry">
            <mxPoint x="13" y="3459" as="sourcePoint" />
            <mxPoint x="63" y="3045" as="targetPoint" />
            <Array as="points">
              <mxPoint x="13" y="3098" />
            </Array>
          </mxGeometry>
        </mxCell>
        <mxCell id="lxd2m9CHt8v5ix-Pc_Jc-98" value="" style="endArrow=classic;html=1;rounded=0;entryX=0.387;entryY=0.999;entryDx=0;entryDy=0;entryPerimeter=0;strokeWidth=3;fontStyle=1" parent="1" target="H1D-Jz9BocjDlhpLzadn-150" edge="1">
          <mxGeometry width="50" height="50" relative="1" as="geometry">
            <mxPoint x="13" y="3258" as="sourcePoint" />
            <mxPoint x="14" y="3281" as="targetPoint" />
          </mxGeometry>
        </mxCell>
        <mxCell id="lxd2m9CHt8v5ix-Pc_Jc-99" value="" style="endArrow=classic;html=1;rounded=0;entryX=0.808;entryY=0.976;entryDx=0;entryDy=0;entryPerimeter=0;strokeWidth=3;fontStyle=1" parent="1" target="H1D-Jz9BocjDlhpLzadn-149" edge="1">
          <mxGeometry width="50" height="50" relative="1" as="geometry">
            <mxPoint x="345" y="3231" as="sourcePoint" />
            <mxPoint x="60" y="3279" as="targetPoint" />
            <Array as="points">
              <mxPoint x="346" y="3514" />
              <mxPoint x="-11" y="3512" />
              <mxPoint x="-11" y="3149" />
            </Array>
          </mxGeometry>
        </mxCell>
        <mxCell id="lxd2m9CHt8v5ix-Pc_Jc-100" value="" style="endArrow=classic;html=1;rounded=0;entryX=0.602;entryY=1.005;entryDx=0;entryDy=0;entryPerimeter=0;strokeWidth=3;fontStyle=1" parent="1" target="H1D-Jz9BocjDlhpLzadn-149" edge="1">
          <mxGeometry width="50" height="50" relative="1" as="geometry">
            <mxPoint x="376" y="3207" as="sourcePoint" />
            <mxPoint x="380" y="3478" as="targetPoint" />
            <Array as="points">
              <mxPoint x="376" y="3485" />
              <mxPoint x="-79" y="3485" />
              <mxPoint x="-79" y="3123" />
            </Array>
          </mxGeometry>
        </mxCell>
        <mxCell id="lxd2m9CHt8v5ix-Pc_Jc-101" value="" style="endArrow=classic;html=1;rounded=0;entryX=0.614;entryY=1.057;entryDx=0;entryDy=0;entryPerimeter=0;strokeWidth=3;fontStyle=1" parent="1" target="H1D-Jz9BocjDlhpLzadn-150" edge="1">
          <mxGeometry width="50" height="50" relative="1" as="geometry">
            <mxPoint x="-79" y="3287" as="sourcePoint" />
            <mxPoint x="-46" y="3181" as="targetPoint" />
          </mxGeometry>
        </mxCell>
        <mxCell id="lxd2m9CHt8v5ix-Pc_Jc-102" value="" style="endArrow=classic;html=1;rounded=0;entryX=0.827;entryY=0.952;entryDx=0;entryDy=0;entryPerimeter=0;strokeWidth=3;fontStyle=1" parent="1" target="H1D-Jz9BocjDlhpLzadn-150" edge="1">
          <mxGeometry width="50" height="50" relative="1" as="geometry">
            <mxPoint x="-78" y="3314" as="sourcePoint" />
            <mxPoint x="165" y="3171" as="targetPoint" />
          </mxGeometry>
        </mxCell>
        <mxCell id="lxd2m9CHt8v5ix-Pc_Jc-103" value="&lt;font style=&quot;font-size: 25px;&quot;&gt;OR&lt;/font&gt;" style="rounded=0;whiteSpace=wrap;html=1;strokeWidth=2;fontStyle=1" parent="1" vertex="1">
          <mxGeometry x="-506" y="3503" width="84" height="75" as="geometry" />
        </mxCell>
        <mxCell id="lxd2m9CHt8v5ix-Pc_Jc-104" value="&lt;span&gt;stall_control&lt;/span&gt;" style="text;strokeColor=none;align=left;fillColor=none;html=1;verticalAlign=middle;whiteSpace=wrap;rounded=0;strokeWidth=5;fontSize=16;fontStyle=1" parent="1" vertex="1">
          <mxGeometry x="-751" y="2991" width="60" height="30" as="geometry" />
        </mxCell>
        <mxCell id="lxd2m9CHt8v5ix-Pc_Jc-105" value="&lt;span&gt;stall_axi&lt;/span&gt;" style="text;strokeColor=none;align=left;fillColor=none;html=1;verticalAlign=middle;whiteSpace=wrap;rounded=0;strokeWidth=5;fontSize=16;fontStyle=1" parent="1" vertex="1">
          <mxGeometry x="-751" y="3015.74" width="60" height="30" as="geometry" />
        </mxCell>
        <mxCell id="lxd2m9CHt8v5ix-Pc_Jc-106" value="&lt;span&gt;pc_axi&lt;/span&gt;" style="text;strokeColor=none;align=left;fillColor=none;html=1;verticalAlign=middle;whiteSpace=wrap;rounded=0;strokeWidth=5;fontSize=16;fontStyle=1" parent="1" vertex="1">
          <mxGeometry x="-751" y="3209.25" width="60" height="30" as="geometry" />
        </mxCell>
        <mxCell id="lxd2m9CHt8v5ix-Pc_Jc-107" value="" style="endArrow=classic;html=1;rounded=0;exitX=1.001;exitY=0.606;exitDx=0;exitDy=0;exitPerimeter=0;entryX=0;entryY=0.5;entryDx=0;entryDy=0;strokeWidth=3;fontStyle=1" parent="1" source="lxd2m9CHt8v5ix-Pc_Jc-24" target="lxd2m9CHt8v5ix-Pc_Jc-106" edge="1">
          <mxGeometry width="50" height="50" relative="1" as="geometry">
            <mxPoint x="1210" y="3261" as="sourcePoint" />
            <mxPoint x="1260" y="3211" as="targetPoint" />
            <Array as="points">
              <mxPoint x="2080" y="3792" />
              <mxPoint x="2080" y="3975" />
              <mxPoint x="-851" y="3975" />
              <mxPoint x="-851" y="3224" />
            </Array>
          </mxGeometry>
        </mxCell>
        <mxCell id="lxd2m9CHt8v5ix-Pc_Jc-109" value="" style="endArrow=classic;html=1;rounded=0;exitX=0.999;exitY=0.427;exitDx=0;exitDy=0;exitPerimeter=0;entryX=0;entryY=0.5;entryDx=0;entryDy=0;fontStyle=1" parent="1" source="lxd2m9CHt8v5ix-Pc_Jc-24" target="lxd2m9CHt8v5ix-Pc_Jc-105" edge="1">
          <mxGeometry width="50" height="50" relative="1" as="geometry">
            <mxPoint x="366" y="3449" as="sourcePoint" />
            <mxPoint x="416" y="3399" as="targetPoint" />
            <Array as="points">
              <mxPoint x="2029" y="3762" />
              <mxPoint x="2029" y="3940" />
              <mxPoint x="-977" y="3934" />
              <mxPoint x="-977" y="3031" />
            </Array>
          </mxGeometry>
        </mxCell>
        <mxCell id="lxd2m9CHt8v5ix-Pc_Jc-111" value="" style="endArrow=classic;html=1;rounded=0;exitX=1;exitY=0.202;exitDx=0;exitDy=0;exitPerimeter=0;entryX=0;entryY=0.75;entryDx=0;entryDy=0;fontStyle=1" parent="1" source="lxd2m9CHt8v5ix-Pc_Jc-24" target="lxd2m9CHt8v5ix-Pc_Jc-103" edge="1">
          <mxGeometry width="50" height="50" relative="1" as="geometry">
            <mxPoint x="1919" y="3724" as="sourcePoint" />
            <mxPoint x="-451" y="3559" as="targetPoint" />
            <Array as="points">
              <mxPoint x="2003" y="3724" />
              <mxPoint x="2003" y="3910" />
              <mxPoint x="-534" y="3910" />
              <mxPoint x="-534" y="3559" />
            </Array>
          </mxGeometry>
        </mxCell>
        <mxCell id="lxd2m9CHt8v5ix-Pc_Jc-112" value="flusIF_ID" style="endArrow=classic;html=1;rounded=0;exitX=1;exitY=0.5;exitDx=0;exitDy=0;entryX=0.5;entryY=1;entryDx=0;entryDy=0;fontStyle=1" parent="1" source="lxd2m9CHt8v5ix-Pc_Jc-103" target="H1D-Jz9BocjDlhpLzadn-108" edge="1">
          <mxGeometry width="50" height="50" relative="1" as="geometry">
            <mxPoint x="2" y="3060" as="sourcePoint" />
            <mxPoint x="52" y="3010" as="targetPoint" />
            <Array as="points">
              <mxPoint x="-372" y="3540" />
            </Array>
          </mxGeometry>
        </mxCell>
        <mxCell id="lxd2m9CHt8v5ix-Pc_Jc-113" value="" style="endArrow=classic;html=1;rounded=0;entryX=0;entryY=0.25;entryDx=0;entryDy=0;fontStyle=1" parent="1" edge="1">
          <mxGeometry width="50" height="50" relative="1" as="geometry">
            <mxPoint x="-813" y="2650" as="sourcePoint" />
            <mxPoint x="-506" y="3520.749999999999" as="targetPoint" />
            <Array as="points">
              <mxPoint x="-1067" y="2650" />
              <mxPoint x="-1067" y="3521" />
            </Array>
          </mxGeometry>
        </mxCell>
        <mxCell id="lxd2m9CHt8v5ix-Pc_Jc-114" value="" style="endArrow=classic;html=1;rounded=0;exitX=1;exitY=0.5;exitDx=0;exitDy=0;entryX=0;entryY=0.5;entryDx=0;entryDy=0;fontStyle=1" parent="1" source="lxd2m9CHt8v5ix-Pc_Jc-22" target="lxd2m9CHt8v5ix-Pc_Jc-103" edge="1">
          <mxGeometry width="50" height="50" relative="1" as="geometry">
            <mxPoint x="-42" y="2870" as="sourcePoint" />
            <mxPoint x="-1180" y="2341" as="targetPoint" />
            <Array as="points">
              <mxPoint x="208" y="2529" />
              <mxPoint x="208" y="2341" />
              <mxPoint x="-1051" y="2341" />
              <mxPoint x="-1045" y="3541" />
            </Array>
          </mxGeometry>
        </mxCell>
        <mxCell id="lxd2m9CHt8v5ix-Pc_Jc-115" value="" style="endArrow=classic;html=1;rounded=0;entryX=0;entryY=0.5;entryDx=0;entryDy=0;fontStyle=1" parent="1" target="lxd2m9CHt8v5ix-Pc_Jc-104" edge="1">
          <mxGeometry width="50" height="50" relative="1" as="geometry">
            <mxPoint x="-1047" y="3006" as="sourcePoint" />
            <mxPoint x="-802" y="2868" as="targetPoint" />
          </mxGeometry>
        </mxCell>
        <mxCell id="lxd2m9CHt8v5ix-Pc_Jc-116" value="&lt;font style=&quot;font-size: 25px;&quot;&gt;OR&lt;/font&gt;" style="rounded=0;whiteSpace=wrap;html=1;strokeWidth=2;fontStyle=1" parent="1" vertex="1">
          <mxGeometry x="-506" y="3622" width="84" height="75" as="geometry" />
        </mxCell>
        <mxCell id="lxd2m9CHt8v5ix-Pc_Jc-117" value="" style="endArrow=classic;html=1;rounded=0;entryX=0.5;entryY=1;entryDx=0;entryDy=0;exitX=1;exitY=0.5;exitDx=0;exitDy=0;fontStyle=1" parent="1" source="lxd2m9CHt8v5ix-Pc_Jc-116" target="H1D-Jz9BocjDlhpLzadn-134" edge="1">
          <mxGeometry width="50" height="50" relative="1" as="geometry">
            <mxPoint x="-649" y="3124" as="sourcePoint" />
            <mxPoint x="-599" y="3074" as="targetPoint" />
            <Array as="points">
              <mxPoint x="288" y="3660" />
            </Array>
          </mxGeometry>
        </mxCell>
        <mxCell id="lxd2m9CHt8v5ix-Pc_Jc-119" value="" style="endArrow=classic;html=1;rounded=0;entryX=0;entryY=0.25;entryDx=0;entryDy=0;fontStyle=1" parent="1" edge="1">
          <mxGeometry width="50" height="50" relative="1" as="geometry">
            <mxPoint x="-748" y="3521" as="sourcePoint" />
            <mxPoint x="-506" y="3642.75" as="targetPoint" />
            <Array as="points">
              <mxPoint x="-748" y="3643" />
            </Array>
          </mxGeometry>
        </mxCell>
        <mxCell id="lxd2m9CHt8v5ix-Pc_Jc-121" value="" style="endArrow=classic;html=1;rounded=0;fontStyle=1" parent="1" edge="1">
          <mxGeometry width="50" height="50" relative="1" as="geometry">
            <mxPoint x="-534" y="3678" as="sourcePoint" />
            <mxPoint x="-506" y="3678" as="targetPoint" />
          </mxGeometry>
        </mxCell>
      </root>
    </mxGraphModel>
  </diagram>
</mxfile>
